<svg width="1363" height="167" viewBox="0 0 1363 167" fill="none" xmlns="http://www.w3.org/2000/svg">
<rect width="1363" height="167" rx="15" fill="#F0F0F0"/>
<path d="M0 15C0 6.71573 6.71573 0 15 0H37V167H15C6.71573 167 0 160.284 0 152V15Z" fill="#424241"/>
<path d="M100.906 54.9219L93.3945 52.2383V49.0859L103.602 53.375V55.6367L100.906 54.9219ZM93.3945 57.1719L100.918 54.4297L103.602 53.7852V56.0352L93.3945 60.3242V57.1719ZM120.781 57.5352C120.781 57.2305 120.734 56.957 120.641 56.7148C120.555 56.4648 120.391 56.2383 120.148 56.0352C119.906 55.8242 119.566 55.6172 119.129 55.4141C118.691 55.2109 118.125 55 117.43 54.7812C116.656 54.5312 115.922 54.25 115.227 53.9375C114.539 53.625 113.93 53.2617 113.398 52.8477C112.875 52.4258 112.461 51.9375 112.156 51.3828C111.859 50.8281 111.711 50.1836 111.711 49.4492C111.711 48.7383 111.867 48.0938 112.18 47.5156C112.492 46.9297 112.93 46.4297 113.492 46.0156C114.055 45.5938 114.719 45.2695 115.484 45.043C116.258 44.8164 117.105 44.7031 118.027 44.7031C119.285 44.7031 120.383 44.9297 121.32 45.3828C122.258 45.8359 122.984 46.457 123.5 47.2461C124.023 48.0352 124.285 48.9375 124.285 49.9531H120.793C120.793 49.4531 120.688 49.0156 120.477 48.6406C120.273 48.2578 119.961 47.957 119.539 47.7383C119.125 47.5195 118.602 47.4102 117.969 47.4102C117.359 47.4102 116.852 47.5039 116.445 47.6914C116.039 47.8711 115.734 48.1172 115.531 48.4297C115.328 48.7344 115.227 49.0781 115.227 49.4609C115.227 49.75 115.297 50.0117 115.438 50.2461C115.586 50.4805 115.805 50.6992 116.094 50.9023C116.383 51.1055 116.738 51.2969 117.16 51.4766C117.582 51.6562 118.07 51.832 118.625 52.0039C119.555 52.2852 120.371 52.6016 121.074 52.9531C121.785 53.3047 122.379 53.6992 122.855 54.1367C123.332 54.5742 123.691 55.0703 123.934 55.625C124.176 56.1797 124.297 56.8086 124.297 57.5117C124.297 58.2539 124.152 58.918 123.863 59.5039C123.574 60.0898 123.156 60.5859 122.609 60.9922C122.062 61.3984 121.41 61.707 120.652 61.918C119.895 62.1289 119.047 62.2344 118.109 62.2344C117.266 62.2344 116.434 62.125 115.613 61.9062C114.793 61.6797 114.047 61.3398 113.375 60.8867C112.711 60.4336 112.18 59.8555 111.781 59.1523C111.383 58.4492 111.184 57.6172 111.184 56.6562H114.711C114.711 57.1875 114.793 57.6367 114.957 58.0039C115.121 58.3711 115.352 58.668 115.648 58.8945C115.953 59.1211 116.312 59.2852 116.727 59.3867C117.148 59.4883 117.609 59.5391 118.109 59.5391C118.719 59.5391 119.219 59.4531 119.609 59.2812C120.008 59.1094 120.301 58.8711 120.488 58.5664C120.684 58.2617 120.781 57.918 120.781 57.5352ZM133.32 59.1406V53.4922C133.32 53.0859 133.254 52.7383 133.121 52.4492C132.988 52.1523 132.781 51.9219 132.5 51.7578C132.227 51.5938 131.871 51.5117 131.434 51.5117C131.059 51.5117 130.734 51.5781 130.461 51.7109C130.188 51.8359 129.977 52.0195 129.828 52.2617C129.68 52.4961 129.605 52.7734 129.605 53.0938H126.23C126.23 52.5547 126.355 52.043 126.605 51.5586C126.855 51.0742 127.219 50.6484 127.695 50.2812C128.172 49.9062 128.738 49.6133 129.395 49.4023C130.059 49.1914 130.801 49.0859 131.621 49.0859C132.605 49.0859 133.48 49.25 134.246 49.5781C135.012 49.9062 135.613 50.3984 136.051 51.0547C136.496 51.7109 136.719 52.5312 136.719 53.5156V58.9414C136.719 59.6367 136.762 60.207 136.848 60.6523C136.934 61.0898 137.059 61.4727 137.223 61.8008V62H133.812C133.648 61.6562 133.523 61.2266 133.438 60.7109C133.359 60.1875 133.32 59.6641 133.32 59.1406ZM133.766 54.2773L133.789 56.1875H131.902C131.457 56.1875 131.07 56.2383 130.742 56.3398C130.414 56.4414 130.145 56.5859 129.934 56.7734C129.723 56.9531 129.566 57.1641 129.465 57.4062C129.371 57.6484 129.324 57.9141 129.324 58.2031C129.324 58.4922 129.391 58.7539 129.523 58.9883C129.656 59.2148 129.848 59.3945 130.098 59.5273C130.348 59.6523 130.641 59.7148 130.977 59.7148C131.484 59.7148 131.926 59.6133 132.301 59.4102C132.676 59.207 132.965 58.957 133.168 58.6602C133.379 58.3633 133.488 58.082 133.496 57.8164L134.387 59.2461C134.262 59.5664 134.09 59.8984 133.871 60.2422C133.66 60.5859 133.391 60.9102 133.062 61.2148C132.734 61.5117 132.34 61.7578 131.879 61.9531C131.418 62.1406 130.871 62.2344 130.238 62.2344C129.434 62.2344 128.703 62.0742 128.047 61.7539C127.398 61.4258 126.883 60.9766 126.5 60.4062C126.125 59.8281 125.938 59.1719 125.938 58.4375C125.938 57.7734 126.062 57.1836 126.312 56.668C126.562 56.1523 126.93 55.7188 127.414 55.3672C127.906 55.0078 128.52 54.7383 129.254 54.5586C129.988 54.3711 130.84 54.2773 131.809 54.2773H133.766ZM142.883 44V62H139.496V44H142.883ZM151.508 62.2344C150.523 62.2344 149.641 62.0781 148.859 61.7656C148.078 61.4453 147.414 61.0039 146.867 60.4414C146.328 59.8789 145.914 59.2266 145.625 58.4844C145.336 57.7344 145.191 56.9375 145.191 56.0938V55.625C145.191 54.6641 145.328 53.7852 145.602 52.9883C145.875 52.1914 146.266 51.5 146.773 50.9141C147.289 50.3281 147.914 49.8789 148.648 49.5664C149.383 49.2461 150.211 49.0859 151.133 49.0859C152.031 49.0859 152.828 49.2344 153.523 49.5312C154.219 49.8281 154.801 50.25 155.27 50.7969C155.746 51.3438 156.105 52 156.348 52.7656C156.59 53.5234 156.711 54.3672 156.711 55.2969V56.7031H146.633V54.4531H153.395V54.1953C153.395 53.7266 153.309 53.3086 153.137 52.9414C152.973 52.5664 152.723 52.2695 152.387 52.0508C152.051 51.832 151.621 51.7227 151.098 51.7227C150.652 51.7227 150.27 51.8203 149.949 52.0156C149.629 52.2109 149.367 52.4844 149.164 52.8359C148.969 53.1875 148.82 53.6016 148.719 54.0781C148.625 54.5469 148.578 55.0625 148.578 55.625V56.0938C148.578 56.6016 148.648 57.0703 148.789 57.5C148.938 57.9297 149.145 58.3008 149.41 58.6133C149.684 58.9258 150.012 59.168 150.395 59.3398C150.785 59.5117 151.227 59.5977 151.719 59.5977C152.328 59.5977 152.895 59.4805 153.418 59.2461C153.949 59.0039 154.406 58.6406 154.789 58.1562L156.43 59.9375C156.164 60.3203 155.801 60.6875 155.34 61.0391C154.887 61.3906 154.34 61.6797 153.699 61.9062C153.059 62.125 152.328 62.2344 151.508 62.2344ZM168.934 59.293L172.332 44.9375H174.23L174.664 47.3281L171.043 62H169.004L168.934 59.293ZM167.188 44.9375L170 59.293L169.766 62H167.492L163.707 44.9375H167.188ZM177.652 59.2344L180.43 44.9375H183.91L180.137 62H177.863L177.652 59.2344ZM175.297 44.9375L178.719 59.3516L178.625 62H176.586L172.941 47.3164L173.41 44.9375H175.297ZM192.055 59.1406V53.4922C192.055 53.0859 191.988 52.7383 191.855 52.4492C191.723 52.1523 191.516 51.9219 191.234 51.7578C190.961 51.5938 190.605 51.5117 190.168 51.5117C189.793 51.5117 189.469 51.5781 189.195 51.7109C188.922 51.8359 188.711 52.0195 188.562 52.2617C188.414 52.4961 188.34 52.7734 188.34 53.0938H184.965C184.965 52.5547 185.09 52.043 185.34 51.5586C185.59 51.0742 185.953 50.6484 186.43 50.2812C186.906 49.9062 187.473 49.6133 188.129 49.4023C188.793 49.1914 189.535 49.0859 190.355 49.0859C191.34 49.0859 192.215 49.25 192.98 49.5781C193.746 49.9062 194.348 50.3984 194.785 51.0547C195.23 51.7109 195.453 52.5312 195.453 53.5156V58.9414C195.453 59.6367 195.496 60.207 195.582 60.6523C195.668 61.0898 195.793 61.4727 195.957 61.8008V62H192.547C192.383 61.6562 192.258 61.2266 192.172 60.7109C192.094 60.1875 192.055 59.6641 192.055 59.1406ZM192.5 54.2773L192.523 56.1875H190.637C190.191 56.1875 189.805 56.2383 189.477 56.3398C189.148 56.4414 188.879 56.5859 188.668 56.7734C188.457 56.9531 188.301 57.1641 188.199 57.4062C188.105 57.6484 188.059 57.9141 188.059 58.2031C188.059 58.4922 188.125 58.7539 188.258 58.9883C188.391 59.2148 188.582 59.3945 188.832 59.5273C189.082 59.6523 189.375 59.7148 189.711 59.7148C190.219 59.7148 190.66 59.6133 191.035 59.4102C191.41 59.207 191.699 58.957 191.902 58.6602C192.113 58.3633 192.223 58.082 192.23 57.8164L193.121 59.2461C192.996 59.5664 192.824 59.8984 192.605 60.2422C192.395 60.5859 192.125 60.9102 191.797 61.2148C191.469 61.5117 191.074 61.7578 190.613 61.9531C190.152 62.1406 189.605 62.2344 188.973 62.2344C188.168 62.2344 187.438 62.0742 186.781 61.7539C186.133 61.4258 185.617 60.9766 185.234 60.4062C184.859 59.8281 184.672 59.1719 184.672 58.4375C184.672 57.7734 184.797 57.1836 185.047 56.668C185.297 56.1523 185.664 55.7188 186.148 55.3672C186.641 55.0078 187.254 54.7383 187.988 54.5586C188.723 54.3711 189.574 54.2773 190.543 54.2773H192.5ZM201.629 60.5703L204.992 49.3203H208.613L203.516 63.9102C203.406 64.2305 203.258 64.5742 203.07 64.9414C202.891 65.3086 202.645 65.6562 202.332 65.9844C202.027 66.3203 201.641 66.5938 201.172 66.8047C200.711 67.0156 200.145 67.1211 199.473 67.1211C199.152 67.1211 198.891 67.1016 198.688 67.0625C198.484 67.0234 198.242 66.9688 197.961 66.8984V64.4258C198.047 64.4258 198.137 64.4258 198.23 64.4258C198.324 64.4336 198.414 64.4375 198.5 64.4375C198.945 64.4375 199.309 64.3867 199.59 64.2852C199.871 64.1836 200.098 64.0273 200.27 63.8164C200.441 63.6133 200.578 63.3477 200.68 63.0195L201.629 60.5703ZM200.223 49.3203L202.977 58.5078L203.457 62.082L201.16 62.3281L196.602 49.3203H200.223Z" fill="#888888"/>
<path d="M107.205 107.146H99.251V101.191H107.205C108.289 101.191 109.168 101.008 109.842 100.642C110.516 100.275 111.006 99.77 111.314 99.1255C111.636 98.4663 111.797 97.7266 111.797 96.9062C111.797 96.0273 111.636 95.2144 111.314 94.4673C111.006 93.7202 110.516 93.1196 109.842 92.6655C109.168 92.1968 108.289 91.9624 107.205 91.9624H102.151V118H94.439V86.0078H107.205C109.769 86.0078 111.973 86.4766 113.819 87.4141C115.679 88.3516 117.107 89.6406 118.104 91.2812C119.1 92.9072 119.598 94.7676 119.598 96.8623C119.598 98.9277 119.1 100.729 118.104 102.268C117.107 103.806 115.679 105.007 113.819 105.871C111.973 106.721 109.769 107.146 107.205 107.146ZM130.87 100.114V118H123.465V94.2256H130.386L130.87 100.114ZM137.901 94.0498L137.769 100.927C137.476 100.898 137.081 100.861 136.583 100.817C136.084 100.773 135.667 100.751 135.33 100.751C134.466 100.751 133.719 100.854 133.089 101.059C132.474 101.25 131.961 101.542 131.551 101.938C131.155 102.319 130.862 102.802 130.672 103.388C130.496 103.974 130.416 104.655 130.43 105.432L129.09 104.553C129.09 102.956 129.244 101.506 129.551 100.202C129.874 98.8838 130.328 97.7485 130.914 96.7964C131.5 95.8296 132.21 95.0898 133.045 94.5771C133.88 94.0498 134.817 93.7861 135.857 93.7861C136.224 93.7861 136.583 93.8081 136.934 93.8521C137.3 93.896 137.623 93.9619 137.901 94.0498ZM138.736 106.354V105.893C138.736 104.15 138.985 102.546 139.483 101.081C139.981 99.6016 140.713 98.3198 141.68 97.2358C142.647 96.1519 143.841 95.3096 145.262 94.709C146.683 94.0938 148.323 93.7861 150.184 93.7861C152.059 93.7861 153.707 94.0938 155.127 94.709C156.563 95.3096 157.764 96.1519 158.731 97.2358C159.698 98.3198 160.43 99.6016 160.928 101.081C161.426 102.546 161.675 104.15 161.675 105.893V106.354C161.675 108.083 161.426 109.687 160.928 111.167C160.43 112.631 159.698 113.913 158.731 115.012C157.764 116.096 156.57 116.938 155.149 117.539C153.729 118.139 152.088 118.439 150.228 118.439C148.367 118.439 146.719 118.139 145.284 117.539C143.848 116.938 142.647 116.096 141.68 115.012C140.713 113.913 139.981 112.631 139.483 111.167C138.985 109.687 138.736 108.083 138.736 106.354ZM146.141 105.893V106.354C146.141 107.248 146.207 108.083 146.338 108.859C146.47 109.636 146.69 110.317 146.998 110.903C147.305 111.474 147.723 111.921 148.25 112.243C148.777 112.565 149.437 112.727 150.228 112.727C151.004 112.727 151.648 112.565 152.161 112.243C152.688 111.921 153.106 111.474 153.414 110.903C153.721 110.317 153.941 109.636 154.073 108.859C154.205 108.083 154.271 107.248 154.271 106.354V105.893C154.271 105.029 154.205 104.216 154.073 103.454C153.941 102.678 153.721 101.997 153.414 101.411C153.106 100.81 152.688 100.341 152.161 100.004C151.634 99.6675 150.975 99.499 150.184 99.499C149.407 99.499 148.755 99.6675 148.228 100.004C147.715 100.341 147.305 100.81 146.998 101.411C146.69 101.997 146.47 102.678 146.338 103.454C146.207 104.216 146.141 105.029 146.141 105.893ZM177.496 94.2256V99.3672H163.169V94.2256H177.496ZM166.18 88.3149H173.584V110.244C173.584 110.874 173.658 111.364 173.804 111.716C173.951 112.053 174.2 112.294 174.551 112.441C174.917 112.573 175.401 112.639 176.001 112.639C176.426 112.639 176.778 112.631 177.056 112.617C177.334 112.587 177.598 112.551 177.847 112.507V117.802C177.217 118.007 176.558 118.161 175.87 118.264C175.181 118.381 174.449 118.439 173.672 118.439C172.09 118.439 170.735 118.19 169.607 117.692C168.494 117.194 167.645 116.411 167.059 115.341C166.473 114.272 166.18 112.88 166.18 111.167V88.3149ZM178.858 106.354V105.893C178.858 104.15 179.107 102.546 179.605 101.081C180.103 99.6016 180.835 98.3198 181.802 97.2358C182.769 96.1519 183.963 95.3096 185.384 94.709C186.805 94.0938 188.445 93.7861 190.306 93.7861C192.181 93.7861 193.829 94.0938 195.25 94.709C196.685 95.3096 197.886 96.1519 198.853 97.2358C199.82 98.3198 200.552 99.6016 201.05 101.081C201.548 102.546 201.797 104.15 201.797 105.893V106.354C201.797 108.083 201.548 109.687 201.05 111.167C200.552 112.631 199.82 113.913 198.853 115.012C197.886 116.096 196.692 116.938 195.271 117.539C193.851 118.139 192.21 118.439 190.35 118.439C188.489 118.439 186.841 118.139 185.406 117.539C183.97 116.938 182.769 116.096 181.802 115.012C180.835 113.913 180.103 112.631 179.605 111.167C179.107 109.687 178.858 108.083 178.858 106.354ZM186.263 105.893V106.354C186.263 107.248 186.329 108.083 186.46 108.859C186.592 109.636 186.812 110.317 187.12 110.903C187.427 111.474 187.845 111.921 188.372 112.243C188.899 112.565 189.559 112.727 190.35 112.727C191.126 112.727 191.771 112.565 192.283 112.243C192.811 111.921 193.228 111.474 193.536 110.903C193.843 110.317 194.063 109.636 194.195 108.859C194.327 108.083 194.393 107.248 194.393 106.354V105.893C194.393 105.029 194.327 104.216 194.195 103.454C194.063 102.678 193.843 101.997 193.536 101.411C193.228 100.81 192.811 100.341 192.283 100.004C191.756 99.6675 191.097 99.499 190.306 99.499C189.529 99.499 188.877 99.6675 188.35 100.004C187.837 100.341 187.427 100.81 187.12 101.411C186.812 101.997 186.592 102.678 186.46 103.454C186.329 104.216 186.263 105.029 186.263 105.893ZM217.618 94.2256V99.3672H203.292V94.2256H217.618ZM206.302 88.3149H213.707V110.244C213.707 110.874 213.78 111.364 213.926 111.716C214.073 112.053 214.322 112.294 214.673 112.441C215.04 112.573 215.523 112.639 216.124 112.639C216.548 112.639 216.9 112.631 217.178 112.617C217.457 112.587 217.72 112.551 217.969 112.507V117.802C217.339 118.007 216.68 118.161 215.992 118.264C215.303 118.381 214.571 118.439 213.794 118.439C212.212 118.439 210.857 118.19 209.729 117.692C208.616 117.194 207.767 116.411 207.181 115.341C206.595 114.272 206.302 112.88 206.302 111.167V88.3149ZM227.857 115.209L234.009 94.2256H241.963L232.405 121.538C232.2 122.138 231.929 122.783 231.592 123.471C231.255 124.174 230.794 124.841 230.208 125.471C229.622 126.101 228.868 126.613 227.945 127.009C227.037 127.404 225.909 127.602 224.561 127.602C223.843 127.602 223.316 127.565 222.979 127.492C222.657 127.434 222.159 127.324 221.485 127.163V121.867C221.675 121.867 221.836 121.867 221.968 121.867C222.115 121.867 222.276 121.867 222.452 121.867C223.243 121.867 223.873 121.787 224.341 121.625C224.825 121.464 225.191 121.23 225.44 120.922C225.704 120.615 225.909 120.241 226.055 119.802L227.857 115.209ZM226.297 94.2256L230.977 110.859L231.79 118.703H226.824L218.365 94.2256H226.297ZM251.368 98.7959V127.141H243.963V94.2256H250.862L251.368 98.7959ZM265.958 105.827V106.289C265.958 108.017 265.76 109.621 265.364 111.101C264.969 112.58 264.383 113.869 263.606 114.968C262.83 116.066 261.863 116.923 260.706 117.539C259.563 118.139 258.238 118.439 256.729 118.439C255.308 118.439 254.085 118.125 253.06 117.495C252.034 116.865 251.177 115.993 250.489 114.88C249.8 113.767 249.244 112.492 248.819 111.057C248.394 109.621 248.057 108.105 247.808 106.508V105.915C248.057 104.201 248.394 102.612 248.819 101.147C249.244 99.6675 249.8 98.3784 250.489 97.2798C251.177 96.1812 252.027 95.3242 253.038 94.709C254.063 94.0938 255.286 93.7861 256.707 93.7861C258.216 93.7861 259.542 94.0718 260.684 94.6431C261.841 95.2144 262.808 96.0347 263.584 97.104C264.375 98.1587 264.969 99.4258 265.364 100.905C265.76 102.385 265.958 104.025 265.958 105.827ZM258.553 106.289V105.827C258.553 104.904 258.487 104.062 258.355 103.3C258.223 102.524 258.011 101.85 257.718 101.279C257.439 100.708 257.066 100.268 256.597 99.9604C256.128 99.6528 255.55 99.499 254.861 99.499C254.07 99.499 253.404 99.6235 252.862 99.8726C252.334 100.107 251.91 100.473 251.587 100.971C251.28 101.455 251.06 102.062 250.928 102.795C250.811 103.513 250.76 104.355 250.774 105.322V107.124C250.745 108.237 250.855 109.218 251.104 110.068C251.353 110.903 251.785 111.555 252.4 112.023C253.016 112.492 253.851 112.727 254.905 112.727C255.608 112.727 256.194 112.565 256.663 112.243C257.132 111.906 257.505 111.445 257.784 110.859C258.062 110.258 258.26 109.57 258.377 108.793C258.494 108.017 258.553 107.182 258.553 106.289ZM277.076 94.2256V118H269.649V94.2256H277.076ZM269.209 88.0952C269.209 87.0405 269.59 86.1763 270.352 85.5024C271.114 84.8286 272.103 84.4917 273.318 84.4917C274.534 84.4917 275.523 84.8286 276.285 85.5024C277.046 86.1763 277.427 87.0405 277.427 88.0952C277.427 89.1499 277.046 90.0142 276.285 90.688C275.523 91.3618 274.534 91.6987 273.318 91.6987C272.103 91.6987 271.114 91.3618 270.352 90.688C269.59 90.0142 269.209 89.1499 269.209 88.0952ZM288.919 99.3013V118H281.514V94.2256H288.458L288.919 99.3013ZM288.04 105.3L286.304 105.344C286.304 103.527 286.524 101.909 286.963 100.488C287.403 99.0522 288.025 97.8364 288.831 96.8403C289.637 95.8442 290.596 95.0898 291.709 94.5771C292.837 94.0498 294.09 93.7861 295.467 93.7861C296.565 93.7861 297.569 93.9473 298.477 94.2695C299.4 94.5918 300.191 95.1118 300.85 95.8296C301.524 96.5474 302.037 97.4995 302.388 98.686C302.754 99.8579 302.938 101.308 302.938 103.037V118H295.489V103.015C295.489 102.062 295.357 101.337 295.093 100.839C294.83 100.327 294.449 99.9751 293.951 99.7847C293.453 99.5942 292.845 99.499 292.127 99.499C291.365 99.499 290.721 99.6455 290.193 99.9385C289.666 100.231 289.241 100.642 288.919 101.169C288.611 101.682 288.384 102.29 288.238 102.993C288.106 103.696 288.04 104.465 288.04 105.3ZM321.988 94.2256H328.711V117.077C328.711 119.274 328.206 121.135 327.195 122.658C326.185 124.196 324.771 125.361 322.955 126.152C321.153 126.958 319.043 127.36 316.626 127.36C315.557 127.36 314.466 127.221 313.353 126.943C312.239 126.679 311.199 126.284 310.232 125.756C309.266 125.229 308.453 124.577 307.793 123.801L310.892 119.45C311.492 120.124 312.247 120.695 313.155 121.164C314.063 121.647 315.132 121.889 316.363 121.889C317.432 121.889 318.326 121.699 319.043 121.318C319.776 120.937 320.333 120.38 320.713 119.648C321.094 118.93 321.285 118.059 321.285 117.033V99.8506L321.988 94.2256ZM306.189 106.398V105.937C306.189 104.135 306.409 102.495 306.849 101.015C307.303 99.521 307.947 98.2393 308.782 97.1699C309.632 96.0859 310.657 95.251 311.858 94.665C313.06 94.0791 314.415 93.7861 315.923 93.7861C317.549 93.7861 318.882 94.1011 319.922 94.731C320.977 95.3462 321.819 96.2104 322.449 97.3237C323.094 98.437 323.592 99.7407 323.943 101.235C324.31 102.714 324.617 104.311 324.866 106.025V106.574C324.617 108.186 324.273 109.709 323.833 111.145C323.409 112.565 322.852 113.825 322.164 114.924C321.475 116.022 320.611 116.887 319.571 117.517C318.545 118.132 317.315 118.439 315.879 118.439C314.385 118.439 313.038 118.139 311.836 117.539C310.65 116.938 309.632 116.096 308.782 115.012C307.947 113.928 307.303 112.653 306.849 111.188C306.409 109.724 306.189 108.127 306.189 106.398ZM313.594 105.937V106.398C313.594 107.292 313.675 108.12 313.836 108.881C314.012 109.643 314.275 110.317 314.627 110.903C314.979 111.474 315.411 111.921 315.923 112.243C316.451 112.565 317.066 112.727 317.769 112.727C318.838 112.727 319.703 112.5 320.362 112.045C321.021 111.591 321.497 110.947 321.79 110.112C322.083 109.277 322.208 108.295 322.164 107.167V105.432C322.193 104.465 322.127 103.615 321.966 102.883C321.805 102.136 321.548 101.513 321.197 101.015C320.86 100.517 320.406 100.144 319.834 99.8945C319.278 99.6309 318.604 99.499 317.813 99.499C317.125 99.499 316.517 99.6602 315.989 99.9824C315.462 100.305 315.022 100.759 314.671 101.345C314.319 101.916 314.048 102.597 313.858 103.388C313.682 104.165 313.594 105.014 313.594 105.937Z" fill="#424241"/>
<path d="M1363 15C1363 6.71573 1356.28 0 1348 0H1134V167H1348C1356.28 167 1363 160.284 1363 152V15Z" fill="#7084EE"/>
<path fill-rule="evenodd" clip-rule="evenodd" d="M1203 49C1203 47.8954 1203.9 47 1205 47H1292.5C1293.6 47 1294.5 47.8954 1294.5 49V118.996C1294.5 120.101 1293.6 120.996 1292.5 120.996H1205C1203.9 120.996 1203 120.101 1203 118.996V49ZM1207 51V55.4945H1290.5V51H1207ZM1290.5 59.4945H1235.44V116.996H1290.5V59.4945ZM1231.44 116.996V59.4945H1207V116.996H1231.44Z" fill="white"/>
<path fill-rule="evenodd" clip-rule="evenodd" d="M1209.97 64.8004C1209.97 63.6958 1210.87 62.8004 1211.97 62.8004H1225.97C1227.08 62.8004 1227.97 63.6958 1227.97 64.8004V84.1956C1227.97 85.3001 1227.08 86.1956 1225.97 86.1956H1211.97C1210.87 86.1956 1209.97 85.3001 1209.97 84.1956V64.8004ZM1213.97 66.8004V82.1956H1223.97V66.8004H1213.97ZM1239.58 65.6964C1239.58 64.5918 1240.47 63.6964 1241.58 63.6964H1284.5C1285.61 63.6964 1286.5 64.5918 1286.5 65.6964V111.905C1286.5 113.01 1285.61 113.905 1284.5 113.905H1241.58C1240.47 113.905 1239.58 113.01 1239.58 111.905V65.6964ZM1243.58 67.6964V109.905H1282.5V67.6964H1243.58ZM1209.81 95.9363C1209.81 94.8317 1210.71 93.9363 1211.81 93.9363H1220.73C1221.84 93.9363 1222.73 94.8317 1222.73 95.9363C1222.73 97.0409 1221.84 97.9363 1220.73 97.9363H1211.81C1210.71 97.9363 1209.81 97.0409 1209.81 95.9363ZM1209.81 102.936C1209.81 101.832 1210.71 100.936 1211.81 100.936H1226.35C1227.46 100.936 1228.35 101.832 1228.35 102.936C1228.35 104.041 1227.46 104.936 1226.35 104.936H1211.81C1210.71 104.936 1209.81 104.041 1209.81 102.936ZM1209.81 109.936C1209.81 108.832 1210.71 107.936 1211.81 107.936H1220.73C1221.84 107.936 1222.73 108.832 1222.73 109.936C1222.73 111.041 1221.84 111.936 1220.73 111.936H1211.81C1210.71 111.936 1209.81 111.041 1209.81 109.936Z" fill="white"/>
</svg>
