<svg width="1363" height="301" viewBox="0 0 1363 301" fill="none" xmlns="http://www.w3.org/2000/svg">
<rect width="1363" height="301" rx="15" fill="#F0F0F0"/>
<path d="M0 15C0 6.71573 6.71573 0 15 0H37V301H15C6.71573 301 0 294.284 0 286V15Z" fill="#7084EE"/>
<path d="M115.123 133.607C115.123 132.998 115.033 132.452 114.854 131.969C114.675 131.467 114.344 131.002 113.86 130.572C113.377 130.143 112.679 129.713 111.766 129.283C110.87 128.836 109.689 128.37 108.221 127.887C106.502 127.314 104.846 126.669 103.252 125.953C101.659 125.219 100.236 124.369 98.9824 123.402C97.7292 122.417 96.7355 121.271 96.0015 119.964C95.2674 118.639 94.9004 117.1 94.9004 115.345C94.9004 113.662 95.2764 112.149 96.0283 110.807C96.7803 109.446 97.8276 108.291 99.1704 107.342C100.531 106.375 102.125 105.641 103.951 105.14C105.777 104.621 107.773 104.361 109.939 104.361C112.804 104.361 115.328 104.863 117.513 105.865C119.715 106.85 121.434 108.255 122.669 110.082C123.922 111.89 124.549 114.029 124.549 116.5H115.176C115.176 115.515 114.97 114.647 114.559 113.895C114.165 113.143 113.565 112.552 112.759 112.123C111.954 111.693 110.942 111.478 109.725 111.478C108.543 111.478 107.549 111.657 106.744 112.015C105.938 112.373 105.329 112.857 104.917 113.465C104.506 114.056 104.3 114.71 104.3 115.426C104.3 116.017 104.461 116.554 104.783 117.037C105.123 117.503 105.598 117.941 106.207 118.353C106.833 118.765 107.585 119.159 108.462 119.535C109.358 119.911 110.36 120.278 111.47 120.636C113.547 121.298 115.391 122.041 117.002 122.865C118.632 123.67 120.001 124.592 121.111 125.631C122.239 126.651 123.09 127.815 123.663 129.122C124.253 130.429 124.549 131.906 124.549 133.553C124.549 135.308 124.209 136.865 123.528 138.226C122.848 139.587 121.872 140.742 120.601 141.69C119.33 142.621 117.808 143.329 116.036 143.812C114.263 144.295 112.285 144.537 110.101 144.537C108.095 144.537 106.117 144.286 104.166 143.785C102.232 143.266 100.477 142.478 98.9019 141.422C97.3263 140.348 96.0641 138.978 95.1152 137.313C94.1842 135.63 93.7188 133.634 93.7188 131.324H103.172C103.172 132.47 103.324 133.437 103.628 134.225C103.933 135.012 104.38 135.648 104.971 136.131C105.562 136.597 106.287 136.937 107.146 137.152C108.006 137.349 108.991 137.447 110.101 137.447C111.3 137.447 112.267 137.277 113.001 136.937C113.735 136.579 114.272 136.113 114.612 135.541C114.952 134.95 115.123 134.305 115.123 133.607ZM144.073 136.695V124.718C144.073 123.894 143.956 123.187 143.724 122.596C143.491 122.005 143.124 121.549 142.623 121.227C142.121 120.886 141.45 120.716 140.608 120.716C139.928 120.716 139.346 120.833 138.863 121.065C138.379 121.298 138.012 121.647 137.762 122.113C137.511 122.578 137.386 123.169 137.386 123.885H128.335C128.335 122.542 128.631 121.298 129.222 120.152C129.83 118.989 130.69 117.977 131.8 117.118C132.928 116.258 134.271 115.596 135.828 115.13C137.404 114.647 139.158 114.405 141.092 114.405C143.401 114.405 145.46 114.79 147.269 115.56C149.095 116.33 150.536 117.485 151.592 119.024C152.649 120.546 153.177 122.462 153.177 124.771V136.668C153.177 138.566 153.284 140.007 153.499 140.992C153.714 141.959 154.018 142.809 154.412 143.543V144H145.335C144.905 143.105 144.583 142.013 144.368 140.724C144.171 139.417 144.073 138.074 144.073 136.695ZM145.174 126.249L145.228 131.083H141.226C140.385 131.083 139.668 131.199 139.078 131.432C138.505 131.664 138.039 131.987 137.681 132.398C137.341 132.792 137.09 133.24 136.929 133.741C136.786 134.243 136.714 134.771 136.714 135.326C136.714 135.863 136.84 136.346 137.09 136.776C137.359 137.188 137.717 137.51 138.165 137.743C138.612 137.975 139.113 138.092 139.668 138.092C140.671 138.092 141.521 137.904 142.22 137.528C142.936 137.134 143.482 136.66 143.858 136.104C144.234 135.549 144.422 135.03 144.422 134.547L146.409 138.253C146.051 138.969 145.639 139.694 145.174 140.428C144.726 141.162 144.162 141.843 143.482 142.469C142.819 143.078 142.005 143.579 141.038 143.973C140.071 144.349 138.899 144.537 137.52 144.537C135.73 144.537 134.083 144.17 132.579 143.436C131.093 142.702 129.902 141.681 129.007 140.375C128.112 139.05 127.664 137.528 127.664 135.809C127.664 134.305 127.933 132.962 128.47 131.781C129.025 130.599 129.857 129.597 130.967 128.773C132.077 127.949 133.492 127.323 135.21 126.893C136.929 126.463 138.952 126.249 141.28 126.249H145.174ZM167.759 102.75V144H158.682V102.75H167.759ZM187.417 144.537C185.054 144.537 182.942 144.17 181.08 143.436C179.218 142.684 177.642 141.655 176.353 140.348C175.082 139.041 174.106 137.537 173.426 135.836C172.763 134.135 172.432 132.336 172.432 130.438V129.417C172.432 127.287 172.728 125.318 173.318 123.509C173.909 121.683 174.786 120.09 175.95 118.729C177.114 117.368 178.573 116.312 180.328 115.56C182.082 114.79 184.123 114.405 186.451 114.405C188.51 114.405 190.354 114.736 191.983 115.399C193.612 116.061 194.991 117.01 196.119 118.246C197.264 119.481 198.133 120.976 198.724 122.73C199.332 124.485 199.637 126.454 199.637 128.639V132.318H175.896V126.651H190.801V125.953C190.819 124.986 190.649 124.163 190.291 123.482C189.951 122.802 189.45 122.283 188.787 121.925C188.125 121.567 187.319 121.388 186.37 121.388C185.385 121.388 184.571 121.603 183.926 122.032C183.3 122.462 182.807 123.053 182.449 123.805C182.109 124.539 181.867 125.389 181.724 126.356C181.581 127.323 181.509 128.343 181.509 129.417V130.438C181.509 131.512 181.653 132.488 181.939 133.365C182.243 134.243 182.673 134.994 183.228 135.621C183.801 136.23 184.481 136.704 185.269 137.044C186.075 137.385 186.988 137.555 188.008 137.555C189.244 137.555 190.461 137.322 191.661 136.856C192.86 136.391 193.89 135.621 194.749 134.547L198.858 139.435C198.267 140.276 197.426 141.091 196.333 141.878C195.259 142.666 193.97 143.311 192.466 143.812C190.962 144.295 189.279 144.537 187.417 144.537ZM226.465 140.455L234.253 104.898H238.899L241.424 107.933L233.125 144H227.996L226.465 140.455ZM224.397 104.898L230.977 140.724L229.285 144H223.35L215.052 104.898H224.397ZM245.694 140.536L252.22 104.898H261.539L253.24 144H247.332L245.694 140.536ZM242.256 104.898L250.232 140.67L248.621 144H243.492L235.005 107.879L237.637 104.898H242.256ZM278.995 136.695V124.718C278.995 123.894 278.878 123.187 278.646 122.596C278.413 122.005 278.046 121.549 277.544 121.227C277.043 120.886 276.372 120.716 275.53 120.716C274.85 120.716 274.268 120.833 273.785 121.065C273.301 121.298 272.934 121.647 272.684 122.113C272.433 122.578 272.308 123.169 272.308 123.885H263.257C263.257 122.542 263.553 121.298 264.144 120.152C264.752 118.989 265.612 117.977 266.722 117.118C267.85 116.258 269.192 115.596 270.75 115.13C272.326 114.647 274.08 114.405 276.014 114.405C278.323 114.405 280.382 114.79 282.19 115.56C284.017 116.33 285.458 117.485 286.514 119.024C287.57 120.546 288.099 122.462 288.099 124.771V136.668C288.099 138.566 288.206 140.007 288.421 140.992C288.636 141.959 288.94 142.809 289.334 143.543V144H280.257C279.827 143.105 279.505 142.013 279.29 140.724C279.093 139.417 278.995 138.074 278.995 136.695ZM280.096 126.249L280.149 131.083H276.148C275.306 131.083 274.59 131.199 274 131.432C273.427 131.664 272.961 131.987 272.603 132.398C272.263 132.792 272.012 133.24 271.851 133.741C271.708 134.243 271.636 134.771 271.636 135.326C271.636 135.863 271.762 136.346 272.012 136.776C272.281 137.188 272.639 137.51 273.086 137.743C273.534 137.975 274.035 138.092 274.59 138.092C275.593 138.092 276.443 137.904 277.142 137.528C277.858 137.134 278.404 136.66 278.78 136.104C279.156 135.549 279.344 135.03 279.344 134.547L281.331 138.253C280.973 138.969 280.561 139.694 280.096 140.428C279.648 141.162 279.084 141.843 278.404 142.469C277.741 143.078 276.927 143.579 275.96 143.973C274.993 144.349 273.82 144.537 272.442 144.537C270.652 144.537 269.004 144.17 267.5 143.436C266.014 142.702 264.824 141.681 263.929 140.375C263.034 139.05 262.586 137.528 262.586 135.809C262.586 134.305 262.854 132.962 263.392 131.781C263.947 130.599 264.779 129.597 265.889 128.773C266.999 127.949 268.414 127.323 270.132 126.893C271.851 126.463 273.874 126.249 276.202 126.249H280.096ZM301.607 140.589L309.126 114.942H318.848L307.166 148.324C306.915 149.058 306.584 149.846 306.172 150.687C305.761 151.546 305.197 152.361 304.48 153.131C303.764 153.901 302.842 154.527 301.714 155.011C300.604 155.494 299.226 155.736 297.579 155.736C296.701 155.736 296.057 155.691 295.645 155.602C295.251 155.53 294.642 155.396 293.819 155.199V148.727C294.052 148.727 294.249 148.727 294.41 148.727C294.589 148.727 294.786 148.727 295 148.727C295.967 148.727 296.737 148.628 297.31 148.431C297.901 148.234 298.348 147.948 298.653 147.572C298.975 147.196 299.226 146.739 299.405 146.202L301.607 140.589ZM299.7 114.942L305.42 135.272L306.414 144.859H300.345L290.005 114.942H299.7Z" fill="black"/>
<path d="M96.563 55.1172H100.904L107.295 73.3862L113.687 55.1172H118.028L109.039 80H105.552L96.563 55.1172ZM94.2217 55.1172H98.5454L99.3315 72.9248V80H94.2217V55.1172ZM116.045 55.1172H120.386V80H115.259V72.9248L116.045 55.1172ZM123.787 70.9424V70.5835C123.787 69.2277 123.981 67.9801 124.368 66.8408C124.756 65.6901 125.319 64.6932 126.06 63.8501C126.801 63.007 127.712 62.3519 128.794 61.8848C129.877 61.4062 131.119 61.167 132.52 61.167C133.921 61.167 135.169 61.4062 136.263 61.8848C137.356 62.3519 138.274 63.007 139.014 63.8501C139.766 64.6932 140.336 65.6901 140.723 66.8408C141.111 67.9801 141.304 69.2277 141.304 70.5835V70.9424C141.304 72.2868 141.111 73.5343 140.723 74.6851C140.336 75.8244 139.766 76.8213 139.014 77.6758C138.274 78.5189 137.362 79.174 136.28 79.6411C135.197 80.1082 133.956 80.3418 132.554 80.3418C131.153 80.3418 129.905 80.1082 128.812 79.6411C127.729 79.174 126.812 78.5189 126.06 77.6758C125.319 76.8213 124.756 75.8244 124.368 74.6851C123.981 73.5343 123.787 72.2868 123.787 70.9424ZM128.709 70.5835V70.9424C128.709 71.7171 128.777 72.4406 128.914 73.1128C129.051 73.785 129.267 74.3774 129.563 74.8901C129.871 75.3914 130.27 75.7845 130.76 76.0693C131.25 76.3542 131.848 76.4966 132.554 76.4966C133.238 76.4966 133.825 76.3542 134.314 76.0693C134.804 75.7845 135.197 75.3914 135.494 74.8901C135.79 74.3774 136.006 73.785 136.143 73.1128C136.291 72.4406 136.365 71.7171 136.365 70.9424V70.5835C136.365 69.8315 136.291 69.1252 136.143 68.4644C136.006 67.7922 135.784 67.1997 135.477 66.687C135.18 66.1629 134.787 65.7528 134.297 65.4565C133.807 65.1603 133.215 65.0122 132.52 65.0122C131.825 65.0122 131.233 65.1603 130.743 65.4565C130.264 65.7528 129.871 66.1629 129.563 66.687C129.267 67.1997 129.051 67.7922 128.914 68.4644C128.777 69.1252 128.709 69.8315 128.709 70.5835ZM149.131 53.75V80H144.209V53.75H149.131ZM148.431 70.105H147.081C147.092 68.8175 147.263 67.6326 147.593 66.5503C147.924 65.4565 148.396 64.5109 149.012 63.7134C149.627 62.9045 150.362 62.2778 151.216 61.8335C152.082 61.3892 153.039 61.167 154.087 61.167C154.999 61.167 155.825 61.298 156.565 61.5601C157.317 61.8107 157.961 62.2209 158.497 62.7905C159.043 63.3488 159.465 64.0837 159.761 64.9951C160.057 65.9066 160.206 67.0117 160.206 68.3105V80H155.25V68.2764C155.25 67.4561 155.13 66.8123 154.891 66.3452C154.663 65.8667 154.327 65.5306 153.882 65.3369C153.449 65.1318 152.914 65.0293 152.276 65.0293C151.569 65.0293 150.966 65.1603 150.464 65.4224C149.974 65.6844 149.581 66.049 149.285 66.5161C148.989 66.9718 148.772 67.5073 148.636 68.1226C148.499 68.7378 148.431 69.3986 148.431 70.105ZM173.929 75.8301V67.5928C173.929 67.0003 173.832 66.4933 173.638 66.0718C173.444 65.6388 173.143 65.3027 172.732 65.0635C172.334 64.8242 171.815 64.7046 171.177 64.7046C170.63 64.7046 170.158 64.8014 169.759 64.9951C169.36 65.1774 169.052 65.4451 168.836 65.7983C168.619 66.1401 168.511 66.5446 168.511 67.0117H163.589C163.589 66.2256 163.772 65.4793 164.136 64.7729C164.501 64.0666 165.031 63.4456 165.726 62.9102C166.421 62.3633 167.247 61.936 168.204 61.6284C169.172 61.3208 170.254 61.167 171.451 61.167C172.886 61.167 174.162 61.4062 175.279 61.8848C176.395 62.3633 177.273 63.0811 177.911 64.0381C178.56 64.9951 178.885 66.1914 178.885 67.627V75.5396C178.885 76.5535 178.947 77.3853 179.073 78.0347C179.198 78.6727 179.38 79.231 179.62 79.7095V80H174.646C174.407 79.4987 174.225 78.8721 174.1 78.1201C173.986 77.3568 173.929 76.5934 173.929 75.8301ZM174.578 68.7378L174.612 71.5234H171.861C171.211 71.5234 170.647 71.5975 170.169 71.7456C169.69 71.8937 169.297 72.1045 168.99 72.3779C168.682 72.64 168.454 72.9476 168.306 73.3008C168.169 73.654 168.101 74.0413 168.101 74.4629C168.101 74.8844 168.198 75.2661 168.392 75.6079C168.585 75.9383 168.864 76.2004 169.229 76.394C169.594 76.5763 170.021 76.6675 170.511 76.6675C171.251 76.6675 171.895 76.5194 172.442 76.2231C172.989 75.9269 173.41 75.5623 173.707 75.1294C174.014 74.6965 174.174 74.2863 174.185 73.8989L175.484 75.9839C175.302 76.451 175.051 76.9352 174.732 77.4365C174.424 77.9378 174.031 78.4106 173.553 78.855C173.074 79.2879 172.499 79.6468 171.827 79.9316C171.154 80.2051 170.357 80.3418 169.434 80.3418C168.261 80.3418 167.195 80.1082 166.238 79.6411C165.293 79.1626 164.541 78.5075 163.982 77.6758C163.436 76.8327 163.162 75.8757 163.162 74.8047C163.162 73.8363 163.344 72.9761 163.709 72.2241C164.074 71.4722 164.609 70.8398 165.315 70.3271C166.033 69.8031 166.928 69.41 167.999 69.1479C169.069 68.8745 170.311 68.7378 171.724 68.7378H174.578ZM187.601 65.3369V80H182.662V61.5088H187.293L187.601 65.3369ZM186.917 70.105H185.55C185.55 68.8175 185.704 67.6326 186.011 66.5503C186.33 65.4565 186.792 64.5109 187.396 63.7134C188.011 62.9045 188.768 62.2778 189.668 61.8335C190.569 61.3892 191.611 61.167 192.796 61.167C193.616 61.167 194.368 61.2923 195.052 61.543C195.735 61.7822 196.322 62.1639 196.812 62.688C197.313 63.2007 197.701 63.8729 197.974 64.7046C198.248 65.5249 198.384 66.5104 198.384 67.6611V80H193.462V68.208C193.462 67.3649 193.348 66.7155 193.121 66.2598C192.893 65.804 192.568 65.485 192.146 65.3027C191.736 65.1204 191.241 65.0293 190.66 65.0293C190.022 65.0293 189.463 65.1603 188.985 65.4224C188.518 65.6844 188.13 66.049 187.823 66.5161C187.515 66.9718 187.287 67.5073 187.139 68.1226C186.991 68.7378 186.917 69.3986 186.917 70.105ZM197.923 69.541L196.163 69.7632C196.163 68.5555 196.311 67.4333 196.607 66.3965C196.915 65.3597 197.365 64.4482 197.957 63.6621C198.561 62.876 199.307 62.2664 200.196 61.8335C201.084 61.3892 202.11 61.167 203.272 61.167C204.161 61.167 204.97 61.298 205.699 61.5601C206.428 61.8107 207.049 62.2152 207.562 62.7734C208.086 63.3203 208.484 64.0381 208.758 64.9268C209.043 65.8154 209.185 66.9035 209.185 68.1909V80H204.246V68.1909C204.246 67.3364 204.132 66.687 203.904 66.2427C203.688 65.7869 203.369 65.4736 202.947 65.3027C202.537 65.1204 202.047 65.0293 201.478 65.0293C200.885 65.0293 200.367 65.1489 199.922 65.3882C199.478 65.616 199.108 65.9351 198.812 66.3452C198.515 66.7554 198.293 67.2339 198.145 67.7808C197.997 68.3162 197.923 68.903 197.923 69.541ZM217.918 65.3369V80H212.979V61.5088H217.61L217.918 65.3369ZM217.234 70.105H215.867C215.867 68.8175 216.021 67.6326 216.329 66.5503C216.648 65.4565 217.109 64.5109 217.713 63.7134C218.328 62.9045 219.086 62.2778 219.986 61.8335C220.886 61.3892 221.928 61.167 223.113 61.167C223.934 61.167 224.686 61.2923 225.369 61.543C226.053 61.7822 226.639 62.1639 227.129 62.688C227.631 63.2007 228.018 63.8729 228.292 64.7046C228.565 65.5249 228.702 66.5104 228.702 67.6611V80H223.78V68.208C223.78 67.3649 223.666 66.7155 223.438 66.2598C223.21 65.804 222.885 65.485 222.464 65.3027C222.054 65.1204 221.558 65.0293 220.977 65.0293C220.339 65.0293 219.781 65.1603 219.302 65.4224C218.835 65.6844 218.448 66.049 218.14 66.5161C217.833 66.9718 217.605 67.5073 217.457 68.1226C217.308 68.7378 217.234 69.3986 217.234 70.105ZM228.24 69.541L226.48 69.7632C226.48 68.5555 226.628 67.4333 226.924 66.3965C227.232 65.3597 227.682 64.4482 228.274 63.6621C228.878 62.876 229.625 62.2664 230.513 61.8335C231.402 61.3892 232.427 61.167 233.589 61.167C234.478 61.167 235.287 61.298 236.016 61.5601C236.745 61.8107 237.366 62.2152 237.879 62.7734C238.403 63.3203 238.802 64.0381 239.075 64.9268C239.36 65.8154 239.502 66.9035 239.502 68.1909V80H234.563V68.1909C234.563 67.3364 234.45 66.687 234.222 66.2427C234.005 65.7869 233.686 65.4736 233.265 65.3027C232.854 65.1204 232.365 65.0293 231.795 65.0293C231.202 65.0293 230.684 65.1489 230.24 65.3882C229.795 65.616 229.425 65.9351 229.129 66.3452C228.833 66.7554 228.611 67.2339 228.462 67.7808C228.314 68.3162 228.24 68.903 228.24 69.541ZM253.294 75.8301V67.5928C253.294 67.0003 253.197 66.4933 253.003 66.0718C252.81 65.6388 252.508 65.3027 252.098 65.0635C251.699 64.8242 251.181 64.7046 250.542 64.7046C249.996 64.7046 249.523 64.8014 249.124 64.9951C248.725 65.1774 248.418 65.4451 248.201 65.7983C247.985 66.1401 247.876 66.5446 247.876 67.0117H242.955C242.955 66.2256 243.137 65.4793 243.501 64.7729C243.866 64.0666 244.396 63.4456 245.091 62.9102C245.786 62.3633 246.612 61.936 247.569 61.6284C248.537 61.3208 249.62 61.167 250.816 61.167C252.251 61.167 253.528 61.4062 254.644 61.8848C255.761 62.3633 256.638 63.0811 257.276 64.0381C257.925 64.9951 258.25 66.1914 258.25 67.627V75.5396C258.25 76.5535 258.313 77.3853 258.438 78.0347C258.563 78.6727 258.746 79.231 258.985 79.7095V80H254.012C253.772 79.4987 253.59 78.8721 253.465 78.1201C253.351 77.3568 253.294 76.5934 253.294 75.8301ZM253.943 68.7378L253.978 71.5234H251.226C250.577 71.5234 250.013 71.5975 249.534 71.7456C249.056 71.8937 248.663 72.1045 248.355 72.3779C248.047 72.64 247.819 72.9476 247.671 73.3008C247.535 73.654 247.466 74.0413 247.466 74.4629C247.466 74.8844 247.563 75.2661 247.757 75.6079C247.951 75.9383 248.23 76.2004 248.594 76.394C248.959 76.5763 249.386 76.6675 249.876 76.6675C250.617 76.6675 251.26 76.5194 251.807 76.2231C252.354 75.9269 252.776 75.5623 253.072 75.1294C253.379 74.6965 253.539 74.2863 253.55 73.8989L254.849 75.9839C254.667 76.451 254.416 76.9352 254.097 77.4365C253.79 77.9378 253.396 78.4106 252.918 78.855C252.439 79.2879 251.864 79.6468 251.192 79.9316C250.52 80.2051 249.722 80.3418 248.799 80.3418C247.626 80.3418 246.561 80.1082 245.604 79.6411C244.658 79.1626 243.906 78.5075 243.348 77.6758C242.801 76.8327 242.527 75.8757 242.527 74.8047C242.527 73.8363 242.71 72.9761 243.074 72.2241C243.439 71.4722 243.974 70.8398 244.681 70.3271C245.398 69.8031 246.293 69.41 247.364 69.1479C248.435 68.8745 249.677 68.7378 251.089 68.7378H253.943ZM272.964 75.9668V53.75H277.92V80H273.46L272.964 75.9668ZM261.275 70.9766V70.6177C261.275 69.2049 261.434 67.9232 261.753 66.7725C262.072 65.6104 262.54 64.6134 263.155 63.7817C263.77 62.95 264.528 62.3063 265.428 61.8506C266.328 61.3949 267.353 61.167 268.504 61.167C269.586 61.167 270.532 61.3949 271.341 61.8506C272.161 62.3063 272.856 62.9557 273.426 63.7988C274.007 64.6305 274.474 65.616 274.827 66.7554C275.18 67.8833 275.437 69.1195 275.596 70.4639V71.25C275.437 72.5374 275.18 73.7337 274.827 74.8389C274.474 75.944 274.007 76.9124 273.426 77.7441C272.856 78.5645 272.161 79.2025 271.341 79.6582C270.521 80.1139 269.563 80.3418 268.47 80.3418C267.319 80.3418 266.294 80.1082 265.394 79.6411C264.505 79.174 263.753 78.5189 263.138 77.6758C262.534 76.8327 262.072 75.8415 261.753 74.7021C261.434 73.5628 261.275 72.321 261.275 70.9766ZM266.197 70.6177V70.9766C266.197 71.7399 266.254 72.452 266.368 73.1128C266.493 73.7736 266.692 74.3604 266.966 74.873C267.251 75.3743 267.615 75.7674 268.06 76.0522C268.515 76.3257 269.068 76.4624 269.717 76.4624C270.56 76.4624 271.255 76.2744 271.802 75.8984C272.349 75.5111 272.765 74.9813 273.05 74.3091C273.346 73.6369 273.517 72.8621 273.562 71.9849V69.7461C273.528 69.0283 273.426 68.3846 273.255 67.8149C273.095 67.2339 272.856 66.7383 272.537 66.3281C272.229 65.918 271.842 65.599 271.375 65.3711C270.919 65.1432 270.378 65.0293 269.751 65.0293C269.113 65.0293 268.567 65.1774 268.111 65.4736C267.655 65.7585 267.285 66.1515 267 66.6528C266.727 67.1541 266.521 67.7466 266.385 68.4302C266.259 69.1024 266.197 69.8315 266.197 70.6177ZM300.855 72.3608V55.1172H305.965V72.3608C305.965 74.0243 305.6 75.4541 304.871 76.6504C304.142 77.8353 303.145 78.7467 301.88 79.3848C300.627 80.0228 299.214 80.3418 297.642 80.3418C296.013 80.3418 294.572 80.0684 293.318 79.5215C292.065 78.9746 291.08 78.1372 290.362 77.0093C289.644 75.87 289.285 74.4287 289.285 72.6855H294.429C294.429 73.597 294.555 74.3205 294.805 74.856C295.067 75.3914 295.438 75.7731 295.916 76.001C296.395 76.2288 296.97 76.3428 297.642 76.3428C298.292 76.3428 298.855 76.189 299.334 75.8813C299.812 75.5737 300.183 75.1237 300.445 74.5312C300.718 73.9388 300.855 73.2153 300.855 72.3608ZM320.013 75.8301V67.5928C320.013 67.0003 319.916 66.4933 319.722 66.0718C319.528 65.6388 319.227 65.3027 318.816 65.0635C318.418 64.8242 317.899 64.7046 317.261 64.7046C316.714 64.7046 316.242 64.8014 315.843 64.9951C315.444 65.1774 315.136 65.4451 314.92 65.7983C314.703 66.1401 314.595 66.5446 314.595 67.0117H309.673C309.673 66.2256 309.856 65.4793 310.22 64.7729C310.585 64.0666 311.115 63.4456 311.81 62.9102C312.505 62.3633 313.331 61.936 314.288 61.6284C315.256 61.3208 316.338 61.167 317.535 61.167C318.97 61.167 320.246 61.4062 321.363 61.8848C322.479 62.3633 323.357 63.0811 323.995 64.0381C324.644 64.9951 324.969 66.1914 324.969 67.627V75.5396C324.969 76.5535 325.031 77.3853 325.157 78.0347C325.282 78.6727 325.464 79.231 325.704 79.7095V80H320.73C320.491 79.4987 320.309 78.8721 320.184 78.1201C320.07 77.3568 320.013 76.5934 320.013 75.8301ZM320.662 68.7378L320.696 71.5234H317.945C317.295 71.5234 316.731 71.5975 316.253 71.7456C315.774 71.8937 315.381 72.1045 315.074 72.3779C314.766 72.64 314.538 72.9476 314.39 73.3008C314.253 73.654 314.185 74.0413 314.185 74.4629C314.185 74.8844 314.282 75.2661 314.476 75.6079C314.669 75.9383 314.948 76.2004 315.313 76.394C315.678 76.5763 316.105 76.6675 316.595 76.6675C317.335 76.6675 317.979 76.5194 318.526 76.2231C319.073 75.9269 319.494 75.5623 319.791 75.1294C320.098 74.6965 320.258 74.2863 320.269 73.8989L321.568 75.9839C321.386 76.451 321.135 76.9352 320.816 77.4365C320.508 77.9378 320.115 78.4106 319.637 78.855C319.158 79.2879 318.583 79.6468 317.911 79.9316C317.238 80.2051 316.441 80.3418 315.518 80.3418C314.345 80.3418 313.279 80.1082 312.322 79.6411C311.377 79.1626 310.625 78.5075 310.066 77.6758C309.52 76.8327 309.246 75.8757 309.246 74.8047C309.246 73.8363 309.428 72.9761 309.793 72.2241C310.158 71.4722 310.693 70.8398 311.399 70.3271C312.117 69.8031 313.012 69.41 314.083 69.1479C315.153 68.8745 316.395 68.7378 317.808 68.7378H320.662ZM334.043 75.2148L337.889 61.5088H341.016L340.008 66.8921L336.163 80H333.548L334.043 75.2148ZM332.095 61.5088L334.847 75.1978L335.103 80H332.027L327.344 61.5088H332.095ZM344.537 74.9756L347.22 61.5088H351.988L347.305 80H344.246L344.537 74.9756ZM341.443 61.5088L345.271 75.1123L345.801 80H343.169L339.324 66.9092L338.35 61.5088H341.443ZM364.446 75.8301V67.5928C364.446 67.0003 364.349 66.4933 364.156 66.0718C363.962 65.6388 363.66 65.3027 363.25 65.0635C362.851 64.8242 362.333 64.7046 361.695 64.7046C361.148 64.7046 360.675 64.8014 360.276 64.9951C359.878 65.1774 359.57 65.4451 359.354 65.7983C359.137 66.1401 359.029 66.5446 359.029 67.0117H354.107C354.107 66.2256 354.289 65.4793 354.654 64.7729C355.018 64.0666 355.548 63.4456 356.243 62.9102C356.938 62.3633 357.764 61.936 358.721 61.6284C359.69 61.3208 360.772 61.167 361.968 61.167C363.404 61.167 364.68 61.4062 365.796 61.8848C366.913 62.3633 367.79 63.0811 368.428 64.0381C369.078 64.9951 369.402 66.1914 369.402 67.627V75.5396C369.402 76.5535 369.465 77.3853 369.59 78.0347C369.716 78.6727 369.898 79.231 370.137 79.7095V80H365.164C364.925 79.4987 364.743 78.8721 364.617 78.1201C364.503 77.3568 364.446 76.5934 364.446 75.8301ZM365.096 68.7378L365.13 71.5234H362.378C361.729 71.5234 361.165 71.5975 360.687 71.7456C360.208 71.8937 359.815 72.1045 359.507 72.3779C359.2 72.64 358.972 72.9476 358.824 73.3008C358.687 73.654 358.619 74.0413 358.619 74.4629C358.619 74.8844 358.715 75.2661 358.909 75.6079C359.103 75.9383 359.382 76.2004 359.747 76.394C360.111 76.5763 360.538 76.6675 361.028 76.6675C361.769 76.6675 362.413 76.5194 362.959 76.2231C363.506 75.9269 363.928 75.5623 364.224 75.1294C364.532 74.6965 364.691 74.2863 364.703 73.8989L366.001 75.9839C365.819 76.451 365.569 76.9352 365.25 77.4365C364.942 77.9378 364.549 78.4106 364.07 78.855C363.592 79.2879 363.016 79.6468 362.344 79.9316C361.672 80.2051 360.875 80.3418 359.952 80.3418C358.778 80.3418 357.713 80.1082 356.756 79.6411C355.81 79.1626 355.058 78.5075 354.5 77.6758C353.953 76.8327 353.68 75.8757 353.68 74.8047C353.68 73.8363 353.862 72.9761 354.227 72.2241C354.591 71.4722 355.127 70.8398 355.833 70.3271C356.551 69.8031 357.445 69.41 358.516 69.1479C359.587 68.8745 360.829 68.7378 362.242 68.7378H365.096ZM384.117 75.9668V53.75H389.073V80H384.612L384.117 75.9668ZM372.427 70.9766V70.6177C372.427 69.2049 372.587 67.9232 372.906 66.7725C373.225 65.6104 373.692 64.6134 374.307 63.7817C374.922 62.95 375.68 62.3063 376.58 61.8506C377.48 61.3949 378.506 61.167 379.656 61.167C380.739 61.167 381.684 61.3949 382.493 61.8506C383.313 62.3063 384.008 62.9557 384.578 63.7988C385.159 64.6305 385.626 65.616 385.979 66.7554C386.333 67.8833 386.589 69.1195 386.749 70.4639V71.25C386.589 72.5374 386.333 73.7337 385.979 74.8389C385.626 75.944 385.159 76.9124 384.578 77.7441C384.008 78.5645 383.313 79.2025 382.493 79.6582C381.673 80.1139 380.716 80.3418 379.622 80.3418C378.471 80.3418 377.446 80.1082 376.546 79.6411C375.657 79.174 374.905 78.5189 374.29 77.6758C373.686 76.8327 373.225 75.8415 372.906 74.7021C372.587 73.5628 372.427 72.321 372.427 70.9766ZM377.349 70.6177V70.9766C377.349 71.7399 377.406 72.452 377.52 73.1128C377.645 73.7736 377.845 74.3604 378.118 74.873C378.403 75.3743 378.768 75.7674 379.212 76.0522C379.668 76.3257 380.22 76.4624 380.87 76.4624C381.713 76.4624 382.408 76.2744 382.955 75.8984C383.501 75.5111 383.917 74.9813 384.202 74.3091C384.498 73.6369 384.669 72.8621 384.715 71.9849V69.7461C384.681 69.0283 384.578 68.3846 384.407 67.8149C384.248 67.2339 384.008 66.7383 383.689 66.3281C383.382 65.918 382.994 65.599 382.527 65.3711C382.072 65.1432 381.53 65.0293 380.904 65.0293C380.266 65.0293 379.719 65.1774 379.263 65.4736C378.807 65.7585 378.437 66.1515 378.152 66.6528C377.879 67.1541 377.674 67.7466 377.537 68.4302C377.412 69.1024 377.349 69.8315 377.349 70.6177ZM418.638 76.001V80H405.394V76.001H418.638ZM407.068 55.1172V80H401.941V55.1172H407.068ZM416.912 65.2515V69.1479H405.394V65.2515H416.912ZM418.621 55.1172V59.1333H405.394V55.1172H418.621ZM426.517 53.75V80H421.578V53.75H426.517ZM452.562 73.4888C452.562 73.0444 452.493 72.6457 452.356 72.2925C452.231 71.9279 451.992 71.5975 451.639 71.3013C451.285 70.9937 450.79 70.6917 450.152 70.3955C449.514 70.0993 448.688 69.7917 447.674 69.4727C446.546 69.1081 445.475 68.6979 444.461 68.2422C443.458 67.7865 442.57 67.2567 441.795 66.6528C441.032 66.0376 440.428 65.3255 439.983 64.5166C439.55 63.7077 439.334 62.7677 439.334 61.6968C439.334 60.66 439.562 59.7201 440.018 58.877C440.473 58.0225 441.111 57.2933 441.932 56.6895C442.752 56.0742 443.72 55.6014 444.837 55.271C445.965 54.9406 447.201 54.7754 448.545 54.7754C450.38 54.7754 451.98 55.1058 453.348 55.7666C454.715 56.4274 455.774 57.3332 456.526 58.4839C457.29 59.6346 457.671 60.9505 457.671 62.4316H452.579C452.579 61.7025 452.425 61.0645 452.117 60.5176C451.821 59.9593 451.365 59.5207 450.75 59.2017C450.146 58.8826 449.383 58.7231 448.46 58.7231C447.571 58.7231 446.831 58.8599 446.238 59.1333C445.646 59.3953 445.201 59.7542 444.905 60.21C444.609 60.6543 444.461 61.1556 444.461 61.7139C444.461 62.1354 444.563 62.5171 444.769 62.8589C444.985 63.2007 445.304 63.5197 445.726 63.8159C446.147 64.1121 446.666 64.3913 447.281 64.6533C447.896 64.9154 448.608 65.1717 449.417 65.4224C450.773 65.8325 451.963 66.2939 452.989 66.8066C454.026 67.3193 454.891 67.8947 455.586 68.5327C456.281 69.1707 456.806 69.8942 457.159 70.7031C457.512 71.512 457.688 72.4292 457.688 73.4546C457.688 74.5369 457.478 75.5054 457.056 76.3599C456.635 77.2144 456.025 77.9378 455.228 78.5303C454.43 79.1227 453.479 79.5728 452.374 79.8804C451.268 80.188 450.032 80.3418 448.665 80.3418C447.435 80.3418 446.221 80.1823 445.025 79.8633C443.829 79.5329 442.741 79.0373 441.761 78.3765C440.792 77.7157 440.018 76.8726 439.437 75.8472C438.855 74.8218 438.565 73.6084 438.565 72.207H443.709C443.709 72.9818 443.829 73.6369 444.068 74.1724C444.307 74.7078 444.643 75.1408 445.076 75.4712C445.521 75.8016 446.045 76.0409 446.648 76.189C447.264 76.3371 447.936 76.4111 448.665 76.4111C449.554 76.4111 450.283 76.2858 450.853 76.0352C451.434 75.7845 451.861 75.437 452.134 74.9927C452.419 74.5483 452.562 74.047 452.562 73.4888ZM470.848 75.8301V67.5928C470.848 67.0003 470.751 66.4933 470.557 66.0718C470.363 65.6388 470.062 65.3027 469.651 65.0635C469.253 64.8242 468.734 64.7046 468.096 64.7046C467.549 64.7046 467.076 64.8014 466.678 64.9951C466.279 65.1774 465.971 65.4451 465.755 65.7983C465.538 66.1401 465.43 66.5446 465.43 67.0117H460.508C460.508 66.2256 460.691 65.4793 461.055 64.7729C461.42 64.0666 461.95 63.4456 462.645 62.9102C463.34 62.3633 464.166 61.936 465.123 61.6284C466.091 61.3208 467.173 61.167 468.37 61.167C469.805 61.167 471.081 61.4062 472.198 61.8848C473.314 62.3633 474.192 63.0811 474.83 64.0381C475.479 64.9951 475.804 66.1914 475.804 67.627V75.5396C475.804 76.5535 475.866 77.3853 475.992 78.0347C476.117 78.6727 476.299 79.231 476.539 79.7095V80H471.565C471.326 79.4987 471.144 78.8721 471.019 78.1201C470.905 77.3568 470.848 76.5934 470.848 75.8301ZM471.497 68.7378L471.531 71.5234H468.78C468.13 71.5234 467.566 71.5975 467.088 71.7456C466.609 71.8937 466.216 72.1045 465.909 72.3779C465.601 72.64 465.373 72.9476 465.225 73.3008C465.088 73.654 465.02 74.0413 465.02 74.4629C465.02 74.8844 465.117 75.2661 465.311 75.6079C465.504 75.9383 465.783 76.2004 466.148 76.394C466.513 76.5763 466.94 76.6675 467.43 76.6675C468.17 76.6675 468.814 76.5194 469.361 76.2231C469.908 75.9269 470.329 75.5623 470.625 75.1294C470.933 74.6965 471.093 74.2863 471.104 73.8989L472.403 75.9839C472.221 76.451 471.97 76.9352 471.651 77.4365C471.343 77.9378 470.95 78.4106 470.472 78.855C469.993 79.2879 469.418 79.6468 468.746 79.9316C468.073 80.2051 467.276 80.3418 466.353 80.3418C465.18 80.3418 464.114 80.1082 463.157 79.6411C462.212 79.1626 461.46 78.5075 460.901 77.6758C460.354 76.8327 460.081 75.8757 460.081 74.8047C460.081 73.8363 460.263 72.9761 460.628 72.2241C460.993 71.4722 461.528 70.8398 462.234 70.3271C462.952 69.8031 463.847 69.41 464.917 69.1479C465.988 68.8745 467.23 68.7378 468.643 68.7378H471.497ZM484.81 77.915L489.715 61.5088H494.996L487.562 82.7856C487.402 83.2528 487.186 83.7541 486.912 84.2896C486.65 84.825 486.291 85.332 485.835 85.8105C485.391 86.3005 484.827 86.6992 484.144 87.0068C483.471 87.3145 482.645 87.4683 481.666 87.4683C481.198 87.4683 480.817 87.4398 480.521 87.3828C480.224 87.3258 479.871 87.2461 479.461 87.1436V83.5376C479.586 83.5376 479.717 83.5376 479.854 83.5376C479.991 83.549 480.122 83.5547 480.247 83.5547C480.896 83.5547 481.426 83.4806 481.836 83.3325C482.247 83.1844 482.577 82.9565 482.828 82.6489C483.078 82.3527 483.278 81.9653 483.426 81.4868L484.81 77.915ZM482.759 61.5088L486.775 74.9072L487.476 80.1196L484.126 80.4785L477.479 61.5088H482.759ZM505.232 80.3418C503.797 80.3418 502.509 80.1139 501.37 79.6582C500.231 79.1911 499.262 78.5474 498.465 77.7271C497.679 76.9067 497.075 75.9554 496.653 74.873C496.232 73.7793 496.021 72.6172 496.021 71.3867V70.7031C496.021 69.3018 496.22 68.02 496.619 66.8579C497.018 65.6958 497.588 64.6875 498.328 63.833C499.08 62.9785 499.992 62.3234 501.062 61.8677C502.133 61.4006 503.341 61.167 504.686 61.167C505.996 61.167 507.158 61.3835 508.172 61.8164C509.186 62.2493 510.035 62.8646 510.718 63.6621C511.413 64.4596 511.937 65.4167 512.291 66.5332C512.644 67.6383 512.82 68.8688 512.82 70.2246V72.2754H498.123V68.9941H507.984V68.6182C507.984 67.9346 507.859 67.325 507.608 66.7896C507.369 66.2427 507.004 65.8097 506.514 65.4907C506.024 65.1717 505.398 65.0122 504.634 65.0122C503.985 65.0122 503.427 65.1546 502.959 65.4395C502.492 65.7243 502.111 66.123 501.814 66.6357C501.53 67.1484 501.313 67.7523 501.165 68.4473C501.028 69.1309 500.96 69.8828 500.96 70.7031V71.3867C500.96 72.1273 501.062 72.8109 501.268 73.4375C501.484 74.0641 501.786 74.6053 502.173 75.061C502.572 75.5168 503.051 75.87 503.609 76.1206C504.179 76.3713 504.822 76.4966 505.54 76.4966C506.429 76.4966 507.255 76.3257 508.018 75.9839C508.793 75.6307 509.459 75.1009 510.018 74.3945L512.41 76.9922C512.023 77.5505 511.493 78.0859 510.821 78.5986C510.16 79.1113 509.362 79.5329 508.428 79.8633C507.494 80.1823 506.429 80.3418 505.232 80.3418ZM526.543 75.9668V53.75H531.5V80H527.039L526.543 75.9668ZM514.854 70.9766V70.6177C514.854 69.2049 515.014 67.9232 515.333 66.7725C515.652 65.6104 516.119 64.6134 516.734 63.7817C517.349 62.95 518.107 62.3063 519.007 61.8506C519.907 61.3949 520.932 61.167 522.083 61.167C523.165 61.167 524.111 61.3949 524.92 61.8506C525.74 62.3063 526.435 62.9557 527.005 63.7988C527.586 64.6305 528.053 65.616 528.406 66.7554C528.759 67.8833 529.016 69.1195 529.175 70.4639V71.25C529.016 72.5374 528.759 73.7337 528.406 74.8389C528.053 75.944 527.586 76.9124 527.005 77.7441C526.435 78.5645 525.74 79.2025 524.92 79.6582C524.1 80.1139 523.143 80.3418 522.049 80.3418C520.898 80.3418 519.873 80.1082 518.973 79.6411C518.084 79.174 517.332 78.5189 516.717 77.6758C516.113 76.8327 515.652 75.8415 515.333 74.7021C515.014 73.5628 514.854 72.321 514.854 70.9766ZM519.776 70.6177V70.9766C519.776 71.7399 519.833 72.452 519.947 73.1128C520.072 73.7736 520.271 74.3604 520.545 74.873C520.83 75.3743 521.194 75.7674 521.639 76.0522C522.094 76.3257 522.647 76.4624 523.296 76.4624C524.139 76.4624 524.834 76.2744 525.381 75.8984C525.928 75.5111 526.344 74.9813 526.629 74.3091C526.925 73.6369 527.096 72.8621 527.142 71.9849V69.7461C527.107 69.0283 527.005 68.3846 526.834 67.8149C526.674 67.2339 526.435 66.7383 526.116 66.3281C525.809 65.918 525.421 65.599 524.954 65.3711C524.498 65.1432 523.957 65.0293 523.331 65.0293C522.693 65.0293 522.146 65.1774 521.69 65.4736C521.234 65.7585 520.864 66.1515 520.579 66.6528C520.306 67.1541 520.101 67.7466 519.964 68.4302C519.839 69.1024 519.776 69.8315 519.776 70.6177Z" fill="#888888"/>
<rect x="92" y="181" width="1179" height="80" rx="13.3333" fill="#CCCCCC"/>
<rect x="107" y="196.333" width="208" height="49.3333" rx="4.66667" fill="#888888" stroke="#888888" stroke-width="4"/>
<path d="M171.823 213.167H177.792C178.958 213.167 179.972 213.34 180.833 213.687C181.694 214.035 182.358 214.549 182.823 215.229C183.295 215.91 183.531 216.75 183.531 217.75C183.531 218.618 183.396 219.344 183.125 219.927C182.854 220.51 182.476 220.993 181.99 221.375C181.51 221.75 180.951 222.059 180.312 222.302L179.115 222.979H174.104L174.083 220.156H177.792C178.257 220.156 178.642 220.073 178.948 219.906C179.253 219.74 179.483 219.503 179.635 219.198C179.795 218.885 179.875 218.514 179.875 218.083C179.875 217.646 179.795 217.271 179.635 216.958C179.476 216.646 179.24 216.406 178.927 216.24C178.622 216.073 178.243 215.99 177.792 215.99H175.479V228.333H171.823V213.167ZM180.125 228.333L176.771 221.625L180.646 221.604L184.042 228.177V228.333H180.125ZM191.031 228.542C190.115 228.542 189.295 228.399 188.573 228.115C187.851 227.823 187.24 227.424 186.74 226.917C186.247 226.41 185.868 225.826 185.604 225.167C185.347 224.507 185.219 223.809 185.219 223.073V222.677C185.219 221.851 185.333 221.087 185.562 220.385C185.792 219.677 186.132 219.059 186.583 218.531C187.035 218.003 187.601 217.594 188.281 217.302C188.962 217.003 189.753 216.854 190.656 216.854C191.455 216.854 192.17 216.983 192.802 217.24C193.434 217.497 193.969 217.865 194.406 218.344C194.851 218.823 195.187 219.403 195.417 220.083C195.653 220.764 195.771 221.528 195.771 222.375V223.802H186.562V221.604H192.344V221.333C192.351 220.958 192.285 220.639 192.146 220.375C192.014 220.111 191.819 219.91 191.562 219.771C191.306 219.632 190.993 219.562 190.625 219.562C190.243 219.562 189.927 219.646 189.677 219.812C189.434 219.979 189.243 220.208 189.104 220.5C188.972 220.785 188.878 221.115 188.823 221.49C188.767 221.865 188.74 222.26 188.74 222.677V223.073C188.74 223.49 188.795 223.868 188.906 224.208C189.024 224.549 189.191 224.84 189.406 225.083C189.628 225.319 189.892 225.503 190.198 225.635C190.51 225.767 190.865 225.833 191.26 225.833C191.74 225.833 192.212 225.743 192.677 225.562C193.142 225.382 193.542 225.083 193.875 224.667L195.469 226.562C195.24 226.889 194.913 227.205 194.49 227.51C194.073 227.816 193.573 228.066 192.99 228.26C192.406 228.448 191.753 228.542 191.031 228.542ZM203.052 225.5V220.854C203.052 220.535 203.007 220.26 202.917 220.031C202.826 219.802 202.684 219.625 202.49 219.5C202.295 219.368 202.035 219.302 201.708 219.302C201.444 219.302 201.219 219.347 201.031 219.437C200.844 219.528 200.701 219.663 200.604 219.844C200.507 220.024 200.458 220.253 200.458 220.531H196.948C196.948 220.01 197.062 219.528 197.292 219.083C197.528 218.632 197.861 218.24 198.292 217.906C198.729 217.573 199.25 217.316 199.854 217.135C200.465 216.948 201.146 216.854 201.896 216.854C202.792 216.854 203.59 217.003 204.292 217.302C205 217.601 205.559 218.049 205.969 218.646C206.378 219.236 206.583 219.979 206.583 220.875V225.49C206.583 226.226 206.625 226.785 206.708 227.167C206.792 227.542 206.91 227.872 207.062 228.156V228.333H203.542C203.375 227.986 203.25 227.562 203.167 227.062C203.09 226.556 203.052 226.035 203.052 225.5ZM203.479 221.448L203.5 223.323H201.948C201.622 223.323 201.344 223.368 201.115 223.458C200.892 223.549 200.712 223.674 200.573 223.833C200.441 223.986 200.344 224.16 200.281 224.354C200.226 224.549 200.198 224.753 200.198 224.969C200.198 225.177 200.247 225.365 200.344 225.531C200.448 225.691 200.587 225.816 200.76 225.906C200.934 225.997 201.128 226.042 201.344 226.042C201.733 226.042 202.062 225.969 202.333 225.823C202.611 225.67 202.823 225.486 202.969 225.271C203.115 225.056 203.187 224.854 203.187 224.667L203.958 226.104C203.819 226.382 203.66 226.663 203.479 226.948C203.306 227.233 203.087 227.497 202.823 227.74C202.566 227.976 202.25 228.17 201.875 228.323C201.5 228.469 201.045 228.542 200.51 228.542C199.816 228.542 199.177 228.399 198.594 228.115C198.017 227.83 197.556 227.434 197.208 226.927C196.861 226.413 196.687 225.823 196.687 225.156C196.687 224.573 196.792 224.052 197 223.594C197.215 223.135 197.538 222.747 197.969 222.427C198.399 222.108 198.948 221.865 199.615 221.698C200.281 221.531 201.066 221.448 201.969 221.448H203.479ZM213.292 225.833C213.618 225.833 213.896 225.774 214.125 225.656C214.361 225.531 214.538 225.358 214.656 225.135C214.781 224.906 214.84 224.632 214.833 224.312H218.135C218.142 225.16 217.934 225.903 217.51 226.542C217.094 227.174 216.524 227.667 215.802 228.021C215.087 228.368 214.278 228.542 213.375 228.542C212.493 228.542 211.722 228.399 211.062 228.115C210.403 227.823 209.851 227.42 209.406 226.906C208.969 226.385 208.639 225.778 208.417 225.083C208.201 224.389 208.094 223.635 208.094 222.823V222.583C208.094 221.771 208.201 221.017 208.417 220.323C208.639 219.622 208.969 219.014 209.406 218.5C209.851 217.979 210.399 217.576 211.052 217.292C211.712 217 212.479 216.854 213.354 216.854C214.292 216.854 215.118 217.031 215.833 217.385C216.556 217.74 217.122 218.253 217.531 218.927C217.941 219.601 218.142 220.417 218.135 221.375H214.833C214.84 221.035 214.788 220.729 214.677 220.458C214.566 220.187 214.392 219.972 214.156 219.812C213.927 219.646 213.632 219.562 213.271 219.562C212.91 219.562 212.618 219.642 212.396 219.802C212.174 219.962 212.003 220.184 211.885 220.469C211.774 220.747 211.698 221.066 211.656 221.427C211.622 221.788 211.604 222.174 211.604 222.583V222.823C211.604 223.24 211.622 223.632 211.656 224C211.698 224.361 211.778 224.681 211.896 224.958C212.014 225.229 212.184 225.444 212.406 225.604C212.628 225.757 212.924 225.833 213.292 225.833ZM225.573 217.062V219.5H218.781V217.062H225.573ZM220.208 214.26H223.719V224.656C223.719 224.955 223.753 225.187 223.823 225.354C223.892 225.514 224.01 225.628 224.177 225.698C224.351 225.76 224.58 225.792 224.865 225.792C225.066 225.792 225.233 225.788 225.365 225.781C225.497 225.767 225.622 225.75 225.74 225.729V228.24C225.441 228.337 225.128 228.41 224.802 228.458C224.476 228.514 224.128 228.542 223.76 228.542C223.01 228.542 222.368 228.424 221.833 228.187C221.306 227.951 220.903 227.58 220.625 227.073C220.347 226.566 220.208 225.906 220.208 225.094V214.26ZM233.167 223.573V213.167H236.812V223.573C236.812 224.587 236.58 225.465 236.115 226.208C235.656 226.951 235.031 227.528 234.24 227.937C233.455 228.34 232.573 228.542 231.594 228.542C230.58 228.542 229.677 228.372 228.885 228.031C228.101 227.691 227.483 227.167 227.031 226.458C226.587 225.75 226.365 224.847 226.365 223.75H230.031C230.031 224.264 230.09 224.667 230.208 224.958C230.326 225.243 230.5 225.444 230.729 225.562C230.965 225.674 231.253 225.729 231.594 225.729C231.927 225.729 232.208 225.646 232.437 225.479C232.674 225.306 232.854 225.059 232.979 224.74C233.104 224.413 233.167 224.024 233.167 223.573ZM246.948 224.302C246.948 224.066 246.913 223.854 246.844 223.667C246.774 223.472 246.646 223.292 246.458 223.125C246.271 222.958 246 222.792 245.646 222.625C245.299 222.451 244.84 222.271 244.271 222.083C243.604 221.861 242.962 221.611 242.344 221.333C241.726 221.049 241.174 220.719 240.687 220.344C240.201 219.962 239.816 219.517 239.531 219.01C239.247 218.497 239.104 217.899 239.104 217.219C239.104 216.566 239.25 215.979 239.542 215.458C239.833 214.931 240.24 214.483 240.76 214.115C241.288 213.74 241.906 213.455 242.615 213.26C243.323 213.059 244.097 212.958 244.937 212.958C246.049 212.958 247.028 213.153 247.875 213.542C248.729 213.924 249.396 214.469 249.875 215.177C250.361 215.878 250.604 216.708 250.604 217.667H246.969C246.969 217.285 246.889 216.948 246.729 216.656C246.576 216.365 246.344 216.135 246.031 215.969C245.719 215.802 245.326 215.719 244.854 215.719C244.396 215.719 244.01 215.788 243.698 215.927C243.385 216.066 243.149 216.253 242.99 216.49C242.83 216.719 242.75 216.972 242.75 217.25C242.75 217.479 242.812 217.687 242.937 217.875C243.069 218.056 243.253 218.226 243.49 218.385C243.733 218.545 244.024 218.698 244.365 218.844C244.712 218.99 245.101 219.132 245.531 219.271C246.337 219.528 247.052 219.816 247.677 220.135C248.309 220.448 248.84 220.806 249.271 221.208C249.708 221.604 250.038 222.056 250.26 222.562C250.49 223.069 250.604 223.642 250.604 224.281C250.604 224.962 250.472 225.566 250.208 226.094C249.944 226.622 249.566 227.069 249.073 227.437C248.58 227.799 247.99 228.073 247.302 228.26C246.615 228.448 245.847 228.542 245 228.542C244.222 228.542 243.455 228.444 242.698 228.25C241.948 228.049 241.267 227.743 240.656 227.333C240.045 226.917 239.556 226.385 239.187 225.74C238.826 225.087 238.646 224.312 238.646 223.417H242.312C242.312 223.861 242.372 224.236 242.49 224.542C242.608 224.847 242.781 225.094 243.01 225.281C243.24 225.462 243.521 225.594 243.854 225.677C244.187 225.753 244.569 225.792 245 225.792C245.465 225.792 245.84 225.726 246.125 225.594C246.41 225.455 246.618 225.274 246.75 225.052C246.882 224.823 246.948 224.573 246.948 224.302Z" fill="white"/>
<rect x="339" y="196.333" width="208" height="49.3333" rx="4.66667" fill="#888888" stroke="#888888" stroke-width="4"/>
<path d="M418.844 213.167V228.333H415.198L409.833 218.896V228.333H406.177V213.167H409.833L415.198 222.604V213.167H418.844ZM420.552 222.812V222.594C420.552 221.767 420.67 221.007 420.906 220.312C421.142 219.611 421.49 219.003 421.948 218.49C422.406 217.976 422.972 217.576 423.646 217.292C424.319 217 425.097 216.854 425.979 216.854C426.868 216.854 427.649 217 428.323 217.292C429.003 217.576 429.573 217.976 430.031 218.49C430.49 219.003 430.837 219.611 431.073 220.312C431.309 221.007 431.427 221.767 431.427 222.594V222.812C431.427 223.632 431.309 224.392 431.073 225.094C430.837 225.788 430.49 226.396 430.031 226.917C429.573 227.431 429.007 227.83 428.333 228.115C427.66 228.399 426.882 228.542 426 228.542C425.118 228.542 424.337 228.399 423.656 228.115C422.976 227.83 422.406 227.431 421.948 226.917C421.49 226.396 421.142 225.788 420.906 225.094C420.67 224.392 420.552 223.632 420.552 222.812ZM424.062 222.594V222.812C424.062 223.236 424.094 223.632 424.156 224C424.219 224.368 424.323 224.691 424.469 224.969C424.615 225.24 424.812 225.451 425.062 225.604C425.312 225.757 425.625 225.833 426 225.833C426.368 225.833 426.674 225.757 426.917 225.604C427.167 225.451 427.365 225.24 427.51 224.969C427.656 224.691 427.76 224.368 427.823 224C427.885 223.632 427.917 223.236 427.917 222.812V222.594C427.917 222.184 427.885 221.799 427.823 221.437C427.76 221.069 427.656 220.747 427.51 220.469C427.365 220.184 427.167 219.962 426.917 219.802C426.667 219.642 426.354 219.562 425.979 219.562C425.611 219.562 425.302 219.642 425.052 219.802C424.809 219.962 424.615 220.184 424.469 220.469C424.323 220.747 424.219 221.069 424.156 221.437C424.094 221.799 424.062 222.184 424.062 222.594ZM439.469 225.75V212.333H443V228.333H439.833L439.469 225.75ZM432.552 222.833V222.615C432.552 221.76 432.646 220.983 432.833 220.281C433.021 219.573 433.299 218.965 433.667 218.458C434.035 217.944 434.493 217.549 435.042 217.271C435.59 216.993 436.222 216.854 436.938 216.854C437.576 216.854 438.135 217.003 438.615 217.302C439.094 217.594 439.503 218.003 439.844 218.531C440.184 219.059 440.462 219.677 440.677 220.385C440.892 221.087 441.056 221.844 441.167 222.656V222.917C441.056 223.681 440.892 224.403 440.677 225.083C440.462 225.757 440.184 226.354 439.844 226.875C439.503 227.396 439.09 227.806 438.604 228.104C438.125 228.396 437.563 228.542 436.917 228.542C436.201 228.542 435.569 228.399 435.021 228.115C434.479 227.83 434.024 227.431 433.656 226.917C433.295 226.403 433.021 225.799 432.833 225.104C432.646 224.41 432.552 223.653 432.552 222.833ZM436.063 222.615V222.833C436.063 223.257 436.09 223.649 436.146 224.01C436.201 224.372 436.295 224.691 436.427 224.969C436.566 225.24 436.747 225.451 436.969 225.604C437.198 225.757 437.479 225.833 437.813 225.833C438.264 225.833 438.635 225.726 438.927 225.51C439.226 225.295 439.444 224.99 439.583 224.594C439.729 224.198 439.792 223.733 439.771 223.198V222.375C439.785 221.917 439.753 221.514 439.677 221.167C439.601 220.812 439.479 220.517 439.313 220.281C439.153 220.045 438.948 219.868 438.698 219.75C438.455 219.625 438.167 219.562 437.833 219.562C437.507 219.562 437.229 219.639 437 219.792C436.778 219.944 436.597 220.16 436.458 220.437C436.319 220.708 436.219 221.031 436.156 221.406C436.094 221.774 436.063 222.177 436.063 222.615ZM450.448 228.542C449.531 228.542 448.712 228.399 447.99 228.115C447.267 227.823 446.656 227.424 446.156 226.917C445.663 226.41 445.285 225.826 445.021 225.167C444.764 224.507 444.635 223.809 444.635 223.073V222.677C444.635 221.851 444.75 221.087 444.979 220.385C445.208 219.677 445.549 219.059 446 218.531C446.451 218.003 447.017 217.594 447.698 217.302C448.378 217.003 449.17 216.854 450.073 216.854C450.872 216.854 451.587 216.983 452.219 217.24C452.851 217.497 453.385 217.865 453.823 218.344C454.267 218.823 454.604 219.403 454.833 220.083C455.069 220.764 455.188 221.528 455.188 222.375V223.802H445.979V221.604H451.76V221.333C451.767 220.958 451.701 220.639 451.563 220.375C451.431 220.111 451.236 219.91 450.979 219.771C450.722 219.632 450.41 219.562 450.042 219.562C449.66 219.562 449.344 219.646 449.094 219.812C448.851 219.979 448.66 220.208 448.521 220.5C448.389 220.785 448.295 221.115 448.24 221.49C448.184 221.865 448.156 222.26 448.156 222.677V223.073C448.156 223.49 448.212 223.868 448.323 224.208C448.441 224.549 448.608 224.84 448.823 225.083C449.045 225.319 449.309 225.503 449.615 225.635C449.927 225.767 450.281 225.833 450.677 225.833C451.156 225.833 451.628 225.743 452.094 225.562C452.559 225.382 452.958 225.083 453.292 224.667L454.885 226.562C454.656 226.889 454.33 227.205 453.906 227.51C453.49 227.816 452.99 228.066 452.406 228.26C451.823 228.448 451.17 228.542 450.448 228.542ZM462.813 223.573V213.167H466.458V223.573C466.458 224.587 466.226 225.465 465.76 226.208C465.302 226.951 464.677 227.528 463.885 227.937C463.101 228.34 462.219 228.542 461.24 228.542C460.226 228.542 459.323 228.372 458.531 228.031C457.747 227.691 457.128 227.167 456.677 226.458C456.233 225.75 456.01 224.847 456.01 223.75H459.677C459.677 224.264 459.736 224.667 459.854 224.958C459.972 225.243 460.146 225.444 460.375 225.562C460.611 225.674 460.899 225.729 461.24 225.729C461.573 225.729 461.854 225.646 462.083 225.479C462.319 225.306 462.5 225.059 462.625 224.74C462.75 224.413 462.813 224.024 462.813 223.573ZM476.594 224.302C476.594 224.066 476.559 223.854 476.49 223.667C476.42 223.472 476.292 223.292 476.104 223.125C475.917 222.958 475.646 222.792 475.292 222.625C474.944 222.451 474.486 222.271 473.917 222.083C473.25 221.861 472.608 221.611 471.99 221.333C471.372 221.049 470.819 220.719 470.333 220.344C469.847 219.962 469.462 219.517 469.177 219.01C468.892 218.497 468.75 217.899 468.75 217.219C468.75 216.566 468.896 215.979 469.188 215.458C469.479 214.931 469.885 214.483 470.406 214.115C470.934 213.74 471.552 213.455 472.26 213.26C472.969 213.059 473.743 212.958 474.583 212.958C475.694 212.958 476.674 213.153 477.521 213.542C478.375 213.924 479.042 214.469 479.521 215.177C480.007 215.878 480.25 216.708 480.25 217.667H476.615C476.615 217.285 476.535 216.948 476.375 216.656C476.222 216.365 475.99 216.135 475.677 215.969C475.365 215.802 474.972 215.719 474.5 215.719C474.042 215.719 473.656 215.788 473.344 215.927C473.031 216.066 472.795 216.253 472.635 216.49C472.476 216.719 472.396 216.972 472.396 217.25C472.396 217.479 472.458 217.687 472.583 217.875C472.715 218.056 472.899 218.226 473.135 218.385C473.378 218.545 473.67 218.698 474.01 218.844C474.358 218.99 474.747 219.132 475.177 219.271C475.983 219.528 476.698 219.816 477.323 220.135C477.955 220.448 478.486 220.806 478.917 221.208C479.354 221.604 479.684 222.056 479.906 222.562C480.135 223.069 480.25 223.642 480.25 224.281C480.25 224.962 480.118 225.566 479.854 226.094C479.59 226.622 479.212 227.069 478.719 227.437C478.226 227.799 477.635 228.073 476.948 228.26C476.26 228.448 475.493 228.542 474.646 228.542C473.868 228.542 473.101 228.444 472.344 228.25C471.594 228.049 470.913 227.743 470.302 227.333C469.691 226.917 469.201 226.385 468.833 225.74C468.472 225.087 468.292 224.312 468.292 223.417H471.958C471.958 223.861 472.017 224.236 472.135 224.542C472.253 224.847 472.427 225.094 472.656 225.281C472.885 225.462 473.167 225.594 473.5 225.677C473.833 225.753 474.215 225.792 474.646 225.792C475.111 225.792 475.486 225.726 475.771 225.594C476.056 225.455 476.264 225.274 476.396 225.052C476.528 224.823 476.594 224.573 476.594 224.302Z" fill="white"/>
<rect x="571" y="196.333" width="208" height="49.3333" rx="4.66667" fill="#888888" stroke="#888888" stroke-width="4"/>
<path d="M647.833 213.167V228.333H644.177V213.167H647.833ZM653.729 219.479V222.292H646.792V219.479H653.729ZM654.323 213.167V215.99H646.792V213.167H654.323ZM659.385 212.333V228.333H655.865V212.333H659.385ZM668.135 225.594V217.062H671.656V228.333H668.365L668.135 225.594ZM668.469 223.302L669.385 223.281C669.385 224.038 669.295 224.74 669.115 225.385C668.934 226.024 668.667 226.58 668.313 227.052C667.965 227.524 667.535 227.892 667.021 228.156C666.514 228.413 665.927 228.542 665.26 228.542C664.705 228.542 664.194 228.465 663.729 228.312C663.271 228.153 662.875 227.906 662.542 227.573C662.208 227.233 661.948 226.799 661.76 226.271C661.58 225.736 661.49 225.097 661.49 224.354V217.062H665V224.375C665 224.625 665.031 224.84 665.094 225.021C665.156 225.201 665.247 225.354 665.365 225.479C665.483 225.597 665.628 225.687 665.802 225.75C665.983 225.806 666.188 225.833 666.417 225.833C666.944 225.833 667.358 225.722 667.656 225.5C667.955 225.278 668.163 224.976 668.281 224.594C668.406 224.212 668.469 223.781 668.469 223.302ZM679.531 217.062V219.5H672.74V217.062H679.531ZM674.167 214.26H677.677V224.656C677.677 224.955 677.712 225.187 677.781 225.354C677.851 225.514 677.969 225.628 678.135 225.698C678.309 225.76 678.538 225.792 678.823 225.792C679.024 225.792 679.191 225.788 679.323 225.781C679.455 225.767 679.58 225.75 679.698 225.729V228.24C679.399 228.337 679.087 228.41 678.76 228.458C678.434 228.514 678.087 228.542 677.719 228.542C676.969 228.542 676.326 228.424 675.792 228.187C675.264 227.951 674.861 227.58 674.583 227.073C674.306 226.566 674.167 225.906 674.167 225.094V214.26ZM686.865 217.062V219.5H680.073V217.062H686.865ZM681.5 214.26H685.01V224.656C685.01 224.955 685.045 225.187 685.115 225.354C685.184 225.514 685.302 225.628 685.469 225.698C685.642 225.76 685.872 225.792 686.156 225.792C686.358 225.792 686.524 225.788 686.656 225.781C686.788 225.767 686.913 225.75 687.031 225.729V228.24C686.733 228.337 686.42 228.41 686.094 228.458C685.767 228.514 685.42 228.542 685.052 228.542C684.302 228.542 683.66 228.424 683.125 228.187C682.597 227.951 682.194 227.58 681.917 227.073C681.639 226.566 681.5 225.906 681.5 225.094V214.26ZM693.719 228.542C692.802 228.542 691.983 228.399 691.26 228.115C690.538 227.823 689.927 227.424 689.427 226.917C688.934 226.41 688.556 225.826 688.292 225.167C688.035 224.507 687.906 223.809 687.906 223.073V222.677C687.906 221.851 688.021 221.087 688.25 220.385C688.479 219.677 688.819 219.059 689.271 218.531C689.722 218.003 690.288 217.594 690.969 217.302C691.649 217.003 692.441 216.854 693.344 216.854C694.142 216.854 694.858 216.983 695.49 217.24C696.122 217.497 696.656 217.865 697.094 218.344C697.538 218.823 697.875 219.403 698.104 220.083C698.34 220.764 698.458 221.528 698.458 222.375V223.802H689.25V221.604H695.031V221.333C695.038 220.958 694.972 220.639 694.833 220.375C694.701 220.111 694.507 219.91 694.25 219.771C693.993 219.632 693.681 219.562 693.312 219.562C692.931 219.562 692.615 219.646 692.365 219.812C692.122 219.979 691.931 220.208 691.792 220.5C691.66 220.785 691.566 221.115 691.51 221.49C691.455 221.865 691.427 222.26 691.427 222.677V223.073C691.427 223.49 691.483 223.868 691.594 224.208C691.712 224.549 691.878 224.84 692.094 225.083C692.316 225.319 692.58 225.503 692.885 225.635C693.198 225.767 693.552 225.833 693.948 225.833C694.427 225.833 694.899 225.743 695.365 225.562C695.83 225.382 696.229 225.083 696.562 224.667L698.156 226.562C697.927 226.889 697.601 227.205 697.177 227.51C696.76 227.816 696.26 228.066 695.677 228.26C695.094 228.448 694.441 228.542 693.719 228.542ZM703.427 219.854V228.333H699.917V217.062H703.198L703.427 219.854ZM706.76 216.979L706.698 220.24C706.559 220.226 706.372 220.208 706.135 220.187C705.899 220.167 705.701 220.156 705.542 220.156C705.132 220.156 704.778 220.205 704.479 220.302C704.187 220.392 703.944 220.531 703.75 220.719C703.562 220.899 703.424 221.128 703.333 221.406C703.25 221.684 703.212 222.007 703.219 222.375L702.583 221.958C702.583 221.201 702.656 220.514 702.802 219.896C702.955 219.271 703.17 218.733 703.448 218.281C703.726 217.823 704.062 217.472 704.458 217.229C704.854 216.979 705.299 216.854 705.792 216.854C705.965 216.854 706.135 216.865 706.302 216.885C706.476 216.906 706.628 216.937 706.76 216.979Z" fill="white"/>
<rect x="803" y="196.333" width="208" height="49.3333" rx="4.66667" fill="#888888" stroke="#888888" stroke-width="4"/>
<path d="M875.26 213.167H878.24L881.625 223.719L885.01 213.167H887.99L882.833 228.333H880.417L875.26 213.167ZM873.448 213.167H876.531L877.104 224.792V228.333H873.448V213.167ZM886.719 213.167H889.812V228.333H886.146V224.792L886.719 213.167ZM895.448 227.01L898.365 217.062H902.135L897.604 230.01C897.507 230.295 897.378 230.601 897.219 230.927C897.059 231.26 896.84 231.576 896.563 231.875C896.285 232.174 895.927 232.417 895.49 232.604C895.059 232.792 894.524 232.885 893.885 232.885C893.545 232.885 893.295 232.868 893.135 232.833C892.983 232.806 892.747 232.753 892.427 232.677V230.167C892.517 230.167 892.594 230.167 892.656 230.167C892.726 230.167 892.802 230.167 892.885 230.167C893.26 230.167 893.559 230.128 893.781 230.052C894.01 229.976 894.184 229.865 894.302 229.719C894.427 229.573 894.524 229.396 894.594 229.187L895.448 227.01ZM894.708 217.062L896.927 224.948L897.313 228.667H894.958L890.948 217.062H894.708ZM911.031 224.302C911.031 224.066 910.997 223.854 910.927 223.667C910.858 223.472 910.729 223.292 910.542 223.125C910.354 222.958 910.083 222.792 909.729 222.625C909.382 222.451 908.924 222.271 908.354 222.083C907.688 221.861 907.045 221.611 906.427 221.333C905.809 221.049 905.257 220.719 904.771 220.344C904.285 219.962 903.899 219.517 903.615 219.01C903.33 218.497 903.188 217.899 903.188 217.219C903.188 216.566 903.333 215.979 903.625 215.458C903.917 214.931 904.323 214.483 904.844 214.115C905.372 213.74 905.99 213.455 906.698 213.26C907.406 213.059 908.181 212.958 909.021 212.958C910.132 212.958 911.111 213.153 911.958 213.542C912.813 213.924 913.479 214.469 913.958 215.177C914.444 215.878 914.688 216.708 914.688 217.667H911.052C911.052 217.285 910.972 216.948 910.813 216.656C910.66 216.365 910.427 216.135 910.115 215.969C909.802 215.802 909.41 215.719 908.938 215.719C908.479 215.719 908.094 215.788 907.781 215.927C907.469 216.066 907.233 216.253 907.073 216.49C906.913 216.719 906.833 216.972 906.833 217.25C906.833 217.479 906.896 217.687 907.021 217.875C907.153 218.056 907.337 218.226 907.573 218.385C907.816 218.545 908.108 218.698 908.448 218.844C908.795 218.99 909.184 219.132 909.615 219.271C910.42 219.528 911.135 219.816 911.76 220.135C912.392 220.448 912.924 220.806 913.354 221.208C913.792 221.604 914.122 222.056 914.344 222.562C914.573 223.069 914.688 223.642 914.688 224.281C914.688 224.962 914.556 225.566 914.292 226.094C914.028 226.622 913.649 227.069 913.156 227.437C912.663 227.799 912.073 228.073 911.385 228.26C910.698 228.448 909.931 228.542 909.083 228.542C908.306 228.542 907.538 228.444 906.781 228.25C906.031 228.049 905.351 227.743 904.74 227.333C904.128 226.917 903.639 226.385 903.271 225.74C902.91 225.087 902.729 224.312 902.729 223.417H906.396C906.396 223.861 906.455 224.236 906.573 224.542C906.691 224.847 906.865 225.094 907.094 225.281C907.323 225.462 907.604 225.594 907.938 225.677C908.271 225.753 908.653 225.792 909.083 225.792C909.549 225.792 909.924 225.726 910.208 225.594C910.493 225.455 910.701 225.274 910.833 225.052C910.965 224.823 911.031 224.573 911.031 224.302ZM925.031 225.833L929.26 229.187L926.99 231.104L922.833 227.75L925.031 225.833ZM929.437 220.448V221.062C929.437 222.222 929.274 223.264 928.948 224.187C928.628 225.104 928.17 225.889 927.573 226.542C926.983 227.187 926.285 227.684 925.479 228.031C924.674 228.372 923.785 228.542 922.812 228.542C921.833 228.542 920.937 228.372 920.125 228.031C919.319 227.684 918.618 227.187 918.021 226.542C917.431 225.889 916.972 225.104 916.646 224.187C916.326 223.264 916.167 222.222 916.167 221.062V220.448C916.167 219.288 916.326 218.247 916.646 217.323C916.972 216.399 917.427 215.615 918.01 214.969C918.601 214.316 919.299 213.819 920.104 213.479C920.917 213.132 921.812 212.958 922.792 212.958C923.764 212.958 924.653 213.132 925.458 213.479C926.271 213.819 926.972 214.316 927.562 214.969C928.16 215.615 928.622 216.399 928.948 217.323C929.274 218.247 929.437 219.288 929.437 220.448ZM925.719 221.062V220.427C925.719 219.677 925.653 219.017 925.521 218.448C925.396 217.872 925.208 217.389 924.958 217C924.708 216.611 924.399 216.319 924.031 216.125C923.67 215.924 923.257 215.823 922.792 215.823C922.306 215.823 921.882 215.924 921.521 216.125C921.16 216.319 920.858 216.611 920.615 217C920.372 217.389 920.187 217.872 920.062 218.448C919.944 219.017 919.885 219.677 919.885 220.427V221.062C919.885 221.806 919.944 222.465 920.062 223.042C920.187 223.611 920.372 224.094 920.615 224.49C920.865 224.885 921.17 225.184 921.531 225.385C921.899 225.587 922.326 225.687 922.812 225.687C923.278 225.687 923.691 225.587 924.052 225.385C924.413 225.184 924.715 224.885 924.958 224.49C925.208 224.094 925.396 223.611 925.521 223.042C925.653 222.465 925.719 221.806 925.719 221.062ZM941.323 225.521V228.333H933.656V225.521H941.323ZM934.958 213.167V228.333H931.302V213.167H934.958Z" fill="white"/>
</svg>
