<svg width="1363" height="167" viewBox="0 0 1363 167" fill="none" xmlns="http://www.w3.org/2000/svg">
<rect width="1363" height="167" rx="15" fill="#F0F0F0"/>
<path d="M0 15C0 6.71573 6.71573 0 15 0H37V167H15C6.71573 167 0 160.284 0 152V15Z" fill="#424241"/>
<path d="M100.906 54.9219L93.3945 52.2383V49.0859L103.602 53.375V55.6367L100.906 54.9219ZM93.3945 57.1719L100.918 54.4297L103.602 53.7852V56.0352L93.3945 60.3242V57.1719ZM120.781 57.5352C120.781 57.2305 120.734 56.957 120.641 56.7148C120.555 56.4648 120.391 56.2383 120.148 56.0352C119.906 55.8242 119.566 55.6172 119.129 55.4141C118.691 55.2109 118.125 55 117.43 54.7812C116.656 54.5312 115.922 54.25 115.227 53.9375C114.539 53.625 113.93 53.2617 113.398 52.8477C112.875 52.4258 112.461 51.9375 112.156 51.3828C111.859 50.8281 111.711 50.1836 111.711 49.4492C111.711 48.7383 111.867 48.0938 112.18 47.5156C112.492 46.9297 112.93 46.4297 113.492 46.0156C114.055 45.5938 114.719 45.2695 115.484 45.043C116.258 44.8164 117.105 44.7031 118.027 44.7031C119.285 44.7031 120.383 44.9297 121.32 45.3828C122.258 45.8359 122.984 46.457 123.5 47.2461C124.023 48.0352 124.285 48.9375 124.285 49.9531H120.793C120.793 49.4531 120.688 49.0156 120.477 48.6406C120.273 48.2578 119.961 47.957 119.539 47.7383C119.125 47.5195 118.602 47.4102 117.969 47.4102C117.359 47.4102 116.852 47.5039 116.445 47.6914C116.039 47.8711 115.734 48.1172 115.531 48.4297C115.328 48.7344 115.227 49.0781 115.227 49.4609C115.227 49.75 115.297 50.0117 115.438 50.2461C115.586 50.4805 115.805 50.6992 116.094 50.9023C116.383 51.1055 116.738 51.2969 117.16 51.4766C117.582 51.6562 118.07 51.832 118.625 52.0039C119.555 52.2852 120.371 52.6016 121.074 52.9531C121.785 53.3047 122.379 53.6992 122.855 54.1367C123.332 54.5742 123.691 55.0703 123.934 55.625C124.176 56.1797 124.297 56.8086 124.297 57.5117C124.297 58.2539 124.152 58.918 123.863 59.5039C123.574 60.0898 123.156 60.5859 122.609 60.9922C122.062 61.3984 121.41 61.707 120.652 61.918C119.895 62.1289 119.047 62.2344 118.109 62.2344C117.266 62.2344 116.434 62.125 115.613 61.9062C114.793 61.6797 114.047 61.3398 113.375 60.8867C112.711 60.4336 112.18 59.8555 111.781 59.1523C111.383 58.4492 111.184 57.6172 111.184 56.6562H114.711C114.711 57.1875 114.793 57.6367 114.957 58.0039C115.121 58.3711 115.352 58.668 115.648 58.8945C115.953 59.1211 116.312 59.2852 116.727 59.3867C117.148 59.4883 117.609 59.5391 118.109 59.5391C118.719 59.5391 119.219 59.4531 119.609 59.2812C120.008 59.1094 120.301 58.8711 120.488 58.5664C120.684 58.2617 120.781 57.918 120.781 57.5352ZM133.32 59.1406V53.4922C133.32 53.0859 133.254 52.7383 133.121 52.4492C132.988 52.1523 132.781 51.9219 132.5 51.7578C132.227 51.5938 131.871 51.5117 131.434 51.5117C131.059 51.5117 130.734 51.5781 130.461 51.7109C130.188 51.8359 129.977 52.0195 129.828 52.2617C129.68 52.4961 129.605 52.7734 129.605 53.0938H126.23C126.23 52.5547 126.355 52.043 126.605 51.5586C126.855 51.0742 127.219 50.6484 127.695 50.2812C128.172 49.9062 128.738 49.6133 129.395 49.4023C130.059 49.1914 130.801 49.0859 131.621 49.0859C132.605 49.0859 133.48 49.25 134.246 49.5781C135.012 49.9062 135.613 50.3984 136.051 51.0547C136.496 51.7109 136.719 52.5312 136.719 53.5156V58.9414C136.719 59.6367 136.762 60.207 136.848 60.6523C136.934 61.0898 137.059 61.4727 137.223 61.8008V62H133.812C133.648 61.6562 133.523 61.2266 133.438 60.7109C133.359 60.1875 133.32 59.6641 133.32 59.1406ZM133.766 54.2773L133.789 56.1875H131.902C131.457 56.1875 131.07 56.2383 130.742 56.3398C130.414 56.4414 130.145 56.5859 129.934 56.7734C129.723 56.9531 129.566 57.1641 129.465 57.4062C129.371 57.6484 129.324 57.9141 129.324 58.2031C129.324 58.4922 129.391 58.7539 129.523 58.9883C129.656 59.2148 129.848 59.3945 130.098 59.5273C130.348 59.6523 130.641 59.7148 130.977 59.7148C131.484 59.7148 131.926 59.6133 132.301 59.4102C132.676 59.207 132.965 58.957 133.168 58.6602C133.379 58.3633 133.488 58.082 133.496 57.8164L134.387 59.2461C134.262 59.5664 134.09 59.8984 133.871 60.2422C133.66 60.5859 133.391 60.9102 133.062 61.2148C132.734 61.5117 132.34 61.7578 131.879 61.9531C131.418 62.1406 130.871 62.2344 130.238 62.2344C129.434 62.2344 128.703 62.0742 128.047 61.7539C127.398 61.4258 126.883 60.9766 126.5 60.4062C126.125 59.8281 125.938 59.1719 125.938 58.4375C125.938 57.7734 126.062 57.1836 126.312 56.668C126.562 56.1523 126.93 55.7188 127.414 55.3672C127.906 55.0078 128.52 54.7383 129.254 54.5586C129.988 54.3711 130.84 54.2773 131.809 54.2773H133.766ZM142.883 44V62H139.496V44H142.883ZM151.508 62.2344C150.523 62.2344 149.641 62.0781 148.859 61.7656C148.078 61.4453 147.414 61.0039 146.867 60.4414C146.328 59.8789 145.914 59.2266 145.625 58.4844C145.336 57.7344 145.191 56.9375 145.191 56.0938V55.625C145.191 54.6641 145.328 53.7852 145.602 52.9883C145.875 52.1914 146.266 51.5 146.773 50.9141C147.289 50.3281 147.914 49.8789 148.648 49.5664C149.383 49.2461 150.211 49.0859 151.133 49.0859C152.031 49.0859 152.828 49.2344 153.523 49.5312C154.219 49.8281 154.801 50.25 155.27 50.7969C155.746 51.3438 156.105 52 156.348 52.7656C156.59 53.5234 156.711 54.3672 156.711 55.2969V56.7031H146.633V54.4531H153.395V54.1953C153.395 53.7266 153.309 53.3086 153.137 52.9414C152.973 52.5664 152.723 52.2695 152.387 52.0508C152.051 51.832 151.621 51.7227 151.098 51.7227C150.652 51.7227 150.27 51.8203 149.949 52.0156C149.629 52.2109 149.367 52.4844 149.164 52.8359C148.969 53.1875 148.82 53.6016 148.719 54.0781C148.625 54.5469 148.578 55.0625 148.578 55.625V56.0938C148.578 56.6016 148.648 57.0703 148.789 57.5C148.938 57.9297 149.145 58.3008 149.41 58.6133C149.684 58.9258 150.012 59.168 150.395 59.3398C150.785 59.5117 151.227 59.5977 151.719 59.5977C152.328 59.5977 152.895 59.4805 153.418 59.2461C153.949 59.0039 154.406 58.6406 154.789 58.1562L156.43 59.9375C156.164 60.3203 155.801 60.6875 155.34 61.0391C154.887 61.3906 154.34 61.6797 153.699 61.9062C153.059 62.125 152.328 62.2344 151.508 62.2344ZM168.934 59.293L172.332 44.9375H174.23L174.664 47.3281L171.043 62H169.004L168.934 59.293ZM167.188 44.9375L170 59.293L169.766 62H167.492L163.707 44.9375H167.188ZM177.652 59.2344L180.43 44.9375H183.91L180.137 62H177.863L177.652 59.2344ZM175.297 44.9375L178.719 59.3516L178.625 62H176.586L172.941 47.3164L173.41 44.9375H175.297ZM192.055 59.1406V53.4922C192.055 53.0859 191.988 52.7383 191.855 52.4492C191.723 52.1523 191.516 51.9219 191.234 51.7578C190.961 51.5938 190.605 51.5117 190.168 51.5117C189.793 51.5117 189.469 51.5781 189.195 51.7109C188.922 51.8359 188.711 52.0195 188.562 52.2617C188.414 52.4961 188.34 52.7734 188.34 53.0938H184.965C184.965 52.5547 185.09 52.043 185.34 51.5586C185.59 51.0742 185.953 50.6484 186.43 50.2812C186.906 49.9062 187.473 49.6133 188.129 49.4023C188.793 49.1914 189.535 49.0859 190.355 49.0859C191.34 49.0859 192.215 49.25 192.98 49.5781C193.746 49.9062 194.348 50.3984 194.785 51.0547C195.23 51.7109 195.453 52.5312 195.453 53.5156V58.9414C195.453 59.6367 195.496 60.207 195.582 60.6523C195.668 61.0898 195.793 61.4727 195.957 61.8008V62H192.547C192.383 61.6562 192.258 61.2266 192.172 60.7109C192.094 60.1875 192.055 59.6641 192.055 59.1406ZM192.5 54.2773L192.523 56.1875H190.637C190.191 56.1875 189.805 56.2383 189.477 56.3398C189.148 56.4414 188.879 56.5859 188.668 56.7734C188.457 56.9531 188.301 57.1641 188.199 57.4062C188.105 57.6484 188.059 57.9141 188.059 58.2031C188.059 58.4922 188.125 58.7539 188.258 58.9883C188.391 59.2148 188.582 59.3945 188.832 59.5273C189.082 59.6523 189.375 59.7148 189.711 59.7148C190.219 59.7148 190.66 59.6133 191.035 59.4102C191.41 59.207 191.699 58.957 191.902 58.6602C192.113 58.3633 192.223 58.082 192.23 57.8164L193.121 59.2461C192.996 59.5664 192.824 59.8984 192.605 60.2422C192.395 60.5859 192.125 60.9102 191.797 61.2148C191.469 61.5117 191.074 61.7578 190.613 61.9531C190.152 62.1406 189.605 62.2344 188.973 62.2344C188.168 62.2344 187.438 62.0742 186.781 61.7539C186.133 61.4258 185.617 60.9766 185.234 60.4062C184.859 59.8281 184.672 59.1719 184.672 58.4375C184.672 57.7734 184.797 57.1836 185.047 56.668C185.297 56.1523 185.664 55.7188 186.148 55.3672C186.641 55.0078 187.254 54.7383 187.988 54.5586C188.723 54.3711 189.574 54.2773 190.543 54.2773H192.5ZM201.629 60.5703L204.992 49.3203H208.613L203.516 63.9102C203.406 64.2305 203.258 64.5742 203.07 64.9414C202.891 65.3086 202.645 65.6562 202.332 65.9844C202.027 66.3203 201.641 66.5938 201.172 66.8047C200.711 67.0156 200.145 67.1211 199.473 67.1211C199.152 67.1211 198.891 67.1016 198.688 67.0625C198.484 67.0234 198.242 66.9688 197.961 66.8984V64.4258C198.047 64.4258 198.137 64.4258 198.23 64.4258C198.324 64.4336 198.414 64.4375 198.5 64.4375C198.945 64.4375 199.309 64.3867 199.59 64.2852C199.871 64.1836 200.098 64.0273 200.27 63.8164C200.441 63.6133 200.578 63.3477 200.68 63.0195L201.629 60.5703ZM200.223 49.3203L202.977 58.5078L203.457 62.082L201.16 62.3281L196.602 49.3203H200.223Z" fill="#888888"/>
<path d="M115.994 98.708V104.641H99.5806V98.708H115.994ZM102.151 86.0078V118H94.439V86.0078H102.151ZM121.18 86.0078V118H113.489V86.0078H121.18ZM124.805 106.354V105.893C124.805 104.15 125.054 102.546 125.552 101.081C126.05 99.6016 126.783 98.3198 127.75 97.2358C128.716 96.1519 129.91 95.3096 131.331 94.709C132.752 94.0938 134.393 93.7861 136.253 93.7861C138.128 93.7861 139.776 94.0938 141.197 94.709C142.632 95.3096 143.833 96.1519 144.8 97.2358C145.767 98.3198 146.5 99.6016 146.998 101.081C147.496 102.546 147.745 104.15 147.745 105.893V106.354C147.745 108.083 147.496 109.687 146.998 111.167C146.5 112.631 145.767 113.913 144.8 115.012C143.833 116.096 142.64 116.938 141.219 117.539C139.798 118.139 138.157 118.439 136.297 118.439C134.437 118.439 132.789 118.139 131.353 117.539C129.917 116.938 128.716 116.096 127.75 115.012C126.783 113.913 126.05 112.631 125.552 111.167C125.054 109.687 124.805 108.083 124.805 106.354ZM132.21 105.893V106.354C132.21 107.248 132.276 108.083 132.408 108.859C132.54 109.636 132.759 110.317 133.067 110.903C133.375 111.474 133.792 111.921 134.319 112.243C134.847 112.565 135.506 112.727 136.297 112.727C137.073 112.727 137.718 112.565 138.23 112.243C138.758 111.921 139.175 111.474 139.483 110.903C139.791 110.317 140.01 109.636 140.142 108.859C140.274 108.083 140.34 107.248 140.34 106.354V105.893C140.34 105.029 140.274 104.216 140.142 103.454C140.01 102.678 139.791 101.997 139.483 101.411C139.175 100.81 138.758 100.341 138.23 100.004C137.703 99.6675 137.044 99.499 136.253 99.499C135.477 99.499 134.825 99.6675 134.297 100.004C133.785 100.341 133.375 100.81 133.067 101.411C132.759 101.997 132.54 102.678 132.408 103.454C132.276 104.216 132.21 105.029 132.21 105.893ZM158.27 110.925L162.664 94.2256H167.3L165.652 102.597L161.302 118H157.588L158.27 110.925ZM156.534 94.2256L159.258 110.793L159.566 118H155.062L149.437 94.2256H156.534ZM171.211 110.441L173.958 94.2256H181.055L175.474 118H170.97L171.211 110.441ZM167.828 94.2256L172.266 110.881L172.947 118H169.19L164.927 102.641L163.345 94.2256H167.828ZM209.466 86.0078V118H201.753V86.0078H209.466ZM219.09 86.0078V91.9624H192.349V86.0078H219.09ZM216.475 106.354V105.893C216.475 104.15 216.724 102.546 217.222 101.081C217.72 99.6016 218.453 98.3198 219.419 97.2358C220.386 96.1519 221.58 95.3096 223.001 94.709C224.422 94.0938 226.062 93.7861 227.923 93.7861C229.798 93.7861 231.446 94.0938 232.867 94.709C234.302 95.3096 235.503 96.1519 236.47 97.2358C237.437 98.3198 238.169 99.6016 238.667 101.081C239.166 102.546 239.415 104.15 239.415 105.893V106.354C239.415 108.083 239.166 109.687 238.667 111.167C238.169 112.631 237.437 113.913 236.47 115.012C235.503 116.096 234.31 116.938 232.889 117.539C231.468 118.139 229.827 118.439 227.967 118.439C226.106 118.439 224.458 118.139 223.023 117.539C221.587 116.938 220.386 116.096 219.419 115.012C218.453 113.913 217.72 112.631 217.222 111.167C216.724 109.687 216.475 108.083 216.475 106.354ZM223.88 105.893V106.354C223.88 107.248 223.946 108.083 224.078 108.859C224.209 109.636 224.429 110.317 224.737 110.903C225.044 111.474 225.462 111.921 225.989 112.243C226.517 112.565 227.176 112.727 227.967 112.727C228.743 112.727 229.388 112.565 229.9 112.243C230.428 111.921 230.845 111.474 231.153 110.903C231.46 110.317 231.68 109.636 231.812 108.859C231.944 108.083 232.01 107.248 232.01 106.354V105.893C232.01 105.029 231.944 104.216 231.812 103.454C231.68 102.678 231.46 101.997 231.153 101.411C230.845 100.81 230.428 100.341 229.9 100.004C229.373 99.6675 228.714 99.499 227.923 99.499C227.146 99.499 226.495 99.6675 225.967 100.004C225.455 100.341 225.044 100.81 224.737 101.411C224.429 101.997 224.209 102.678 224.078 103.454C223.946 104.216 223.88 105.029 223.88 105.893ZM254.268 86.0078H266.858C269.319 86.0078 271.458 86.374 273.274 87.1064C275.091 87.8389 276.49 88.9229 277.471 90.3584C278.467 91.7939 278.965 93.5664 278.965 95.6758C278.965 97.5068 278.68 99.0376 278.108 100.268C277.537 101.499 276.739 102.517 275.713 103.322C274.703 104.113 273.523 104.765 272.176 105.278L269.649 106.706H259.08L259.036 100.751H266.858C267.84 100.751 268.653 100.576 269.297 100.224C269.942 99.8726 270.425 99.3745 270.748 98.73C271.084 98.0708 271.253 97.2871 271.253 96.3789C271.253 95.4561 271.084 94.665 270.748 94.0059C270.411 93.3467 269.913 92.8413 269.253 92.4897C268.609 92.1382 267.811 91.9624 266.858 91.9624H261.98V118H254.268V86.0078ZM271.78 118L264.705 103.85L272.879 103.806L280.042 117.67V118H271.78ZM297.159 112.221V94.2256H304.585V118H297.642L297.159 112.221ZM297.862 107.387L299.795 107.343C299.795 108.94 299.605 110.419 299.224 111.782C298.843 113.129 298.279 114.301 297.532 115.297C296.8 116.293 295.892 117.07 294.808 117.626C293.738 118.168 292.5 118.439 291.094 118.439C289.922 118.439 288.846 118.278 287.864 117.956C286.897 117.619 286.062 117.099 285.359 116.396C284.656 115.678 284.107 114.763 283.711 113.649C283.331 112.521 283.14 111.174 283.14 109.606V94.2256H290.545V109.65C290.545 110.178 290.611 110.632 290.743 111.013C290.875 111.394 291.065 111.716 291.314 111.979C291.563 112.229 291.871 112.419 292.237 112.551C292.618 112.668 293.05 112.727 293.533 112.727C294.646 112.727 295.518 112.492 296.148 112.023C296.778 111.555 297.217 110.917 297.466 110.112C297.73 109.306 297.862 108.398 297.862 107.387ZM315.945 99.3013V118H308.541V94.2256H315.484L315.945 99.3013ZM315.066 105.3L313.331 105.344C313.331 103.527 313.55 101.909 313.99 100.488C314.429 99.0522 315.052 97.8364 315.857 96.8403C316.663 95.8442 317.623 95.0898 318.736 94.5771C319.864 94.0498 321.116 93.7861 322.493 93.7861C323.592 93.7861 324.595 93.9473 325.503 94.2695C326.426 94.5918 327.217 95.1118 327.876 95.8296C328.55 96.5474 329.063 97.4995 329.415 98.686C329.781 99.8579 329.964 101.308 329.964 103.037V118H322.515V103.015C322.515 102.062 322.383 101.337 322.12 100.839C321.856 100.327 321.475 99.9751 320.977 99.7847C320.479 99.5942 319.871 99.499 319.153 99.499C318.392 99.499 317.747 99.6455 317.22 99.9385C316.692 100.231 316.268 100.642 315.945 101.169C315.638 101.682 315.411 102.29 315.264 102.993C315.132 103.696 315.066 104.465 315.066 105.3ZM345.85 107.871H339.544C339.544 106.582 339.632 105.446 339.808 104.465C339.998 103.469 340.32 102.575 340.774 101.784C341.229 100.993 341.844 100.261 342.62 99.5869C343.309 99.0156 343.902 98.4663 344.4 97.939C344.898 97.4116 345.279 96.877 345.542 96.335C345.806 95.793 345.938 95.2144 345.938 94.5991C345.938 93.8374 345.828 93.2148 345.608 92.7314C345.403 92.248 345.088 91.8892 344.664 91.6548C344.253 91.4058 343.733 91.2812 343.104 91.2812C342.591 91.2812 342.107 91.4058 341.653 91.6548C341.214 91.9038 340.855 92.292 340.577 92.8193C340.298 93.332 340.145 94.0132 340.115 94.8628H332.667C332.71 92.6802 333.194 90.9077 334.117 89.5454C335.054 88.1685 336.299 87.165 337.852 86.5352C339.419 85.8906 341.17 85.5684 343.104 85.5684C345.242 85.5684 347.081 85.8979 348.619 86.5571C350.157 87.2163 351.336 88.1978 352.156 89.5015C352.977 90.7905 353.387 92.3799 353.387 94.2695C353.387 95.5293 353.145 96.6279 352.662 97.5654C352.193 98.4883 351.556 99.3525 350.75 100.158C349.959 100.949 349.073 101.799 348.091 102.707C347.242 103.454 346.663 104.216 346.355 104.992C346.048 105.754 345.879 106.713 345.85 107.871ZM338.643 114.55C338.643 113.496 339.024 112.617 339.786 111.914C340.547 111.196 341.536 110.837 342.752 110.837C343.968 110.837 344.957 111.196 345.718 111.914C346.48 112.617 346.861 113.496 346.861 114.55C346.861 115.605 346.48 116.491 345.718 117.209C344.957 117.912 343.968 118.264 342.752 118.264C341.536 118.264 340.547 117.912 339.786 117.209C339.024 116.491 338.643 115.605 338.643 114.55Z" fill="#424241"/>
<path d="M1363 15C1363 6.71573 1356.28 0 1348 0H1134V167H1348C1356.28 167 1363 160.284 1363 152V15Z" fill="#7084EE"/>
<path d="M1260.77 81.3079C1263.96 81.3079 1267.09 82.2553 1269.74 84.0303C1272.4 85.8053 1274.47 88.3282 1275.69 91.2799C1276.92 94.2316 1277.24 97.4796 1276.61 100.613C1275.99 103.747 1274.45 106.625 1272.19 108.884C1269.93 111.143 1267.05 112.682 1263.92 113.305C1260.79 113.928 1257.54 113.608 1254.59 112.386C1251.64 111.163 1249.11 109.093 1247.34 106.436C1245.56 103.78 1244.62 100.657 1244.62 97.4617C1244.62 93.1774 1246.32 89.0686 1249.35 86.0392C1252.38 83.0098 1256.48 81.3079 1260.77 81.3079ZM1260.77 75.9233C1256.51 75.9233 1252.35 77.1865 1248.8 79.5532C1245.26 81.9198 1242.5 85.2837 1240.87 89.2193C1239.24 93.1549 1238.81 97.4856 1239.64 101.664C1240.48 105.842 1242.53 109.679 1245.54 112.692C1248.55 115.704 1252.39 117.755 1256.57 118.586C1260.75 119.417 1265.08 118.991 1269.01 117.361C1272.95 115.73 1276.31 112.97 1278.68 109.428C1281.04 105.886 1282.31 101.722 1282.31 97.4617C1282.31 91.7493 1280.04 86.271 1276 82.2317C1271.96 78.1925 1266.48 75.9233 1260.77 75.9233Z" fill="white"/>
<path d="M1274.23 49H1220.38C1218.96 49 1217.59 49.5673 1216.58 50.5771C1215.57 51.5869 1215 52.9565 1215 54.3846V108.231C1215 109.659 1215.57 111.028 1216.58 112.038C1217.59 113.048 1218.96 113.615 1220.38 113.615H1231.15V108.231H1220.38V70.5384H1279.62V54.3846C1279.62 52.9565 1279.05 51.5869 1278.04 50.5771C1277.03 49.5673 1275.66 49 1274.23 49ZM1220.38 65.1538V54.3846H1274.23V65.1538H1220.38Z" fill="white"/>
<path d="M1255.38 89.3849V105.539L1268.85 97.4618L1255.38 89.3849Z" fill="white"/>
</svg>
